<?xml version="1.0" encoding="utf-8"?>
<!DOCTYPE svg PUBLIC "-//W3C//DTD SVG 1.1//EN" "http://www.w3.org/Graphics/SVG/1.1/DTD/svg11.dtd">
<svg version="1.1" xmlns="http://www.w3.org/2000/svg" xmlns:xlink="http://www.w3.org/1999/xlink" width="20" height="20" viewBox="0 0 20 20">
<path d="M9,0 C4.02943725,2.22044605e-16 6.66133815e-16,4.02943725 0,9 C-6.66133815e-16,13.9705627 4.02943725,18 9,18 C13.9705627,18 18,13.9705627 18,9 C18,4.02943725 13.9705627,6.66133815e-16 9,0 Z M11.92,12.34 C11.92,12.69 12.06,12.97 12.28,13 C12.5,13.03 12.75,12.78 12.86,12.4 L13.06,12.48 C13.7780926,12.8638078 14.1286829,13.6985465 13.9,14.48 C13.7489426,15.1714395 13.156505,15.6780759 12.45,15.72 C11.96,14.51 10.34,15.78 8.89,15.5 C8.27804991,15.3459953 7.78084222,14.9011253 7.56,14.31 C8.75,14.2 10.41,12.58 11.92,12.34 Z M8,11.27 C8.91847918,11.2685337 9.69520764,10.5899632 9.82,9.68 C10.2585924,10.2213383 10.2286642,11.003748 9.75,11.51 C9.49509539,11.7331871 9.15595895,11.8349182 8.82029585,11.7888844 C8.48463275,11.7428506 8.18540615,11.5535725 8,11.27 Z M11,10.51 C11.41,10.9 14,10.45 14.52,11.6 C13.57,11.4 11.57,12.21 11.05,10.52 L11,10.51 Z M9.73,5.45 C9.73,5.54 9.73,5.63 9.73,5.72 C9.08,4.95 8.4,4.65 8.12,5.15 C7.84,5.65 9.12,6.26 8.88,7.03 C8.64,7.8 7.61,7.59 7,8.64 C6.39,9.69 6.51,11.06 8.24,12.31 C7.04759955,12.1778108 6.04860772,11.3479397 5.7,10.2 C5.3,9 5.61,7.94 4.92,7.74 C4,7.46 3,8.71 3,9.8 C1.74,8.54 3.05,6.94 1.8,5.62 C3.50107129,1.99793048 7.64428663,0.222880756 11.44,1.49 C10.3385198,2.51082161 9.71780255,3.94827216 9.73,5.45 L9.73,5.45 Z"></path>
</svg>
