<?xml version="1.0" encoding="utf-8"?>
<!-- Generated by IcoMoon.io -->
<!DOCTYPE svg PUBLIC "-//W3C//DTD SVG 1.1//EN" "http://www.w3.org/Graphics/SVG/1.1/DTD/svg11.dtd">
<svg version="1.1" xmlns="http://www.w3.org/2000/svg" xmlns:xlink="http://www.w3.org/1999/xlink" width="20" height="20" viewBox="0 0 20 20">
<path d="M14.27 6.87l-4.27-3.73-4.27 3.73-0.73-0.73 5-4.38 5 4.38zM14 8.42l-4.050 3.43-3.95-3.47v-0.74l4-3.5 4 3.5v0.78zM11 9.7v-1.7h-2v1.7h2zM9.27 13.73l-4.27-3.73-4.27 3.73-0.73-0.73 5-4.38 5 4.38zM19.27 13.73l-4.27-3.73-4.27 3.73-0.73-0.73 5-4.38 5 4.38zM5 11l4 3.5v3.5h-8v-3.5zM15 11l4 3.5v3.5h-8v-3.5zM6 17v-2h-2v2h2zM16 17v-2h-2v2h2z"></path>
</svg>
