<?xml version="1.0" encoding="utf-8"?>
<!-- Generated by IcoMoon.io -->
<!DOCTYPE svg PUBLIC "-//W3C//DTD SVG 1.1//EN" "http://www.w3.org/Graphics/SVG/1.1/DTD/svg11.dtd">
<svg version="1.1" xmlns="http://www.w3.org/2000/svg" xmlns:xlink="http://www.w3.org/1999/xlink" width="20" height="20" viewBox="0 0 20 20">
<path d="M18 12h-2.18c-0.17 0.7-0.44 1.35-0.81 1.93l1.54 1.54-2.1 2.1-1.54-1.54c-0.58 0.36-1.23 0.63-1.91 0.79v2.18h-3v-2.18c-0.68-0.16-1.33-0.43-1.91-0.79l-1.54 1.54-2.12-2.12 1.54-1.54c-0.36-0.58-0.63-1.23-0.79-1.91h-2.18v-2.97h2.17c0.16-0.7 0.44-1.35 0.8-1.94l-1.54-1.54 2.1-2.1 1.54 1.54c0.58-0.37 1.24-0.64 1.93-0.81v-2.18h3v2.18c0.68 0.16 1.33 0.43 1.91 0.79l1.54-1.54 2.12 2.12-1.54 1.54c0.36 0.59 0.64 1.24 0.8 1.94h2.17v2.97zM9.5 13.5c1.66 0 3-1.34 3-3s-1.34-3-3-3-3 1.34-3 3 1.34 3 3 3z"></path>
</svg>
