<?xml version="1.0" encoding="utf-8"?>
<!-- Generated by IcoMoon.io -->
<!DOCTYPE svg PUBLIC "-//W3C//DTD SVG 1.1//EN" "http://www.w3.org/Graphics/SVG/1.1/DTD/svg11.dtd">
<svg version="1.1" xmlns="http://www.w3.org/2000/svg" xmlns:xlink="http://www.w3.org/1999/xlink" width="20" height="20" viewBox="0 0 20 20">
<path d="M10.44 3.020l1.82-1.82 6.36 6.35-1.83 1.82c-1.050-0.68-2.48-0.57-3.41 0.36l-0.75 0.75c-0.92 0.93-1.040 2.35-0.35 3.41l-1.83 1.82-2.41-2.41-2.8 2.79c-0.42 0.42-3.38 2.71-3.8 2.29s1.86-3.39 2.28-3.81l2.79-2.79-2.41-2.42 1.83-1.82c1.050 0.69 2.48 0.57 3.4-0.36l0.75-0.75c0.93-0.92 1.050-2.35 0.36-3.41z"></path>
</svg>
