<?xml version="1.0" encoding="utf-8"?>
<!-- Generated by IcoMoon.io -->
<!DOCTYPE svg PUBLIC "-//W3C//DTD SVG 1.1//EN" "http://www.w3.org/Graphics/SVG/1.1/DTD/svg11.dtd">
<svg version="1.1" xmlns="http://www.w3.org/2000/svg" xmlns:xlink="http://www.w3.org/1999/xlink" width="20" height="20" viewBox="0 0 20 20">
<path d="M14.48 11.060l-7.070-7.070 1.5-1.5c0.5-0.56 2.3-0.47 3.51 0.32 1.21 0.8 1.43 1.28 2.91 2.1 1.18 0.64 2.45 1.26 4.45 0.85zM13.77 11.77l-7.070-7.070-1.77 1.77c-0.39 0.39-0.39 1.020 0 1.41l1.060 1.060c0.39 0.39 0.39 1.030 0 1.42-0.6 0.6-1.43 1.11-2.21 1.69-0.35 0.26-0.7 0.53-1.010 0.84-1.34 1.34-2.37 3.19-1.37 4.18 0.99 1 2.84-0.030 4.18-1.36 0.31-0.31 0.58-0.66 0.85-1.020 0.57-0.78 1.080-1.61 1.69-2.21 0.39-0.39 1.020-0.39 1.41 0l1.060 1.060c0.39 0.39 1.020 0.39 1.41 0z"></path>
</svg>
