<?xml version="1.0" encoding="utf-8"?>
<!-- Generated by IcoMoon.io -->
<!DOCTYPE svg PUBLIC "-//W3C//DTD SVG 1.1//EN" "http://www.w3.org/Graphics/SVG/1.1/DTD/svg11.dtd">
<svg version="1.1" xmlns="http://www.w3.org/2000/svg" xmlns:xlink="http://www.w3.org/1999/xlink" width="20" height="20" viewBox="0 0 20 20">
<path d="M17.74 2.76c1.68 1.69 1.68 4.41 0 6.1l-1.53 1.52c-1.12 1.12-2.7 1.47-4.14 1.090l2.62-2.61 0.76-0.77 0.76-0.76c0.84-0.84 0.84-2.2 0-3.040-0.84-0.85-2.2-0.85-3.040 0l-0.77 0.76-3.38 3.38c-0.37-1.44-0.020-3.020 1.1-4.14l1.52-1.53c1.69-1.68 4.42-1.68 6.1 0zM8.59 13.43l5.34-5.34c0.42-0.42 0.42-1.1 0-1.52-0.44-0.43-1.13-0.39-1.53 0l-5.33 5.34c-0.42 0.42-0.42 1.1 0 1.52 0.44 0.43 1.13 0.39 1.52 0zM7.83 15.72l4.14-4.15c0.38 1.44 0.030 3.020-1.090 4.14l-1.52 1.53c-1.69 1.68-4.41 1.68-6.1 0-1.68-1.68-1.68-4.42 0-6.1l1.53-1.52c1.12-1.12 2.7-1.47 4.14-1.1l-4.14 4.15c-0.85 0.84-0.85 2.2 0 3.050 0.84 0.84 2.2 0.84 3.040 0z"></path>
</svg>
