<?xml version="1.0" encoding="utf-8"?>
<!DOCTYPE svg PUBLIC "-//W3C//DTD SVG 1.1//EN" "http://www.w3.org/Graphics/SVG/1.1/DTD/svg11.dtd">
<svg version="1.1" xmlns="http://www.w3.org/2000/svg" xmlns:xlink="http://www.w3.org/1999/xlink" width="20" height="20" viewBox="0 0 20 20">
<path d="M9,0 C4.02943725,2.22044605e-16 6.66133815e-16,4.02943725 0,9 C-6.66133815e-16,13.9705627 4.02943725,18 9,18 C13.9705627,18 18,13.9705627 18,9 C18,4.02943725 13.9705627,6.66133815e-16 9,0 Z M16.5,6.48 C16.2261471,7.37642337 15.5923462,8.11887585 14.75,8.53 C14.3000578,6.84078067 13.0922534,5.45568393 11.48,4.78 C11.6094706,4.33629614 11.8886263,3.95113191 12.27,3.69 C11.84,3.41 11.27,3.27 10.93,3.76 C10.4,4.45 10.93,5.37 11.14,5.76 L11.14,5.9 C10.5847716,5.56322584 10.1506329,5.05906478 9.9,4.46 C8.93374658,4.42896728 7.97797291,4.6679107 7.14,5.15 C7.05301227,4.58540171 7.10800024,4.00802805 7.3,3.47 C8.03333333,3.54 8.75333333,3.24 9.22,2.67 C9.68,2.15 9.09,1.49 8.63,1.09 L8.99,1.09 C10.3513888,1.08081732 11.6918198,1.42540112 12.88,2.09 C14.2401262,3.09522829 15.0741611,4.66042142 15.15,6.35 C15.39,6.35 15.85,5.8 16.06,5.43 C16.2318547,5.7689041 16.378907,6.11982437 16.5,6.48 L16.5,6.48 Z M9,16.84 C6.95,14.76 9.25,13.09 8,11.6 C7.08,10.75 5.71,11.34 4.89,10.37 C4.60799015,8.89673086 5.15714037,7.38752783 6.32,6.44 C6.84,6 10.32,5.44 11.74,6.66 C12.5705425,7.37534003 13.1548235,8.33398074 13.41,9.4 C13.8689041,9.43466968 14.327888,9.33383231 14.73,9.11 C15.14,12.09 11.58,15.85 9,16.84 Z M5.15,2.09 C5.93621436,1.79024548 6.82559895,2.06200188 7.31,2.75 C6.89040474,3.13038882 6.36924397,3.38054599 5.81,3.47 C5.83067957,3.17554711 5.89470269,2.88575828 6,2.61 L5.15,2.09 Z"></path>
</svg>
