<?xml version="1.0" encoding="utf-8"?>
<!DOCTYPE svg PUBLIC "-//W3C//DTD SVG 1.1//EN" "http://www.w3.org/Graphics/SVG/1.1/DTD/svg11.dtd">
<svg version="1.1" xmlns="http://www.w3.org/2000/svg" xmlns:xlink="http://www.w3.org/1999/xlink" width="20" height="20" viewBox="0 0 20 20">
<path d="M9,0 C4.02943725,2.22044605e-16 6.66133815e-16,4.02943725 0,9 C-6.66133815e-16,13.9705627 4.02943725,18 9,18 C13.9705627,18 18,13.9705627 18,9 C18,4.02943725 13.9705627,6.66133815e-16 9,0 Z M1.11,9.68 L3.62,9.68 C3.65933277,10.5901454 3.78659176,11.4943541 4,12.38 L1.84,12.38 C1.43720535,11.5308804 1.18995828,10.616405 1.11,9.68 L1.11,9.68 Z M9.68,4.28 L9.68,1.19 C10.6436821,1.55622437 11.4355545,2.26962301 11.9,3.19 C12.1052862,3.53679193 12.2857382,3.89769592 12.44,4.27 L9.68,4.28 Z M12.9,5.63 C13.1319638,6.51292717 13.2694028,7.41801345 13.31,8.33 L9.68,8.33 L9.68,5.63 L12.9,5.63 Z M8.32,1.19 L8.32,4.28 L5.56,4.28 C5.71426185,3.90769592 5.89471384,3.54679193 6.1,3.2 C6.56246862,2.27585284 7.35459109,1.55866088 8.32,1.19 L8.32,1.19 Z M8.32,5.63 L8.32,8.33 L4.7,8.33 C4.74059717,7.41801345 4.8780362,6.51292717 5.11,5.63 L8.32,5.63 Z M3.62,8.32 L1.11,8.32 C1.18995828,7.38359504 1.43720535,6.46911958 1.84,5.62 L4,5.62 C3.78659176,6.50564592 3.65933277,7.40985457 3.62,8.32 L3.62,8.32 Z M4.7,9.68 L8.32,9.68 L8.32,12.38 L5.11,12.38 C4.8780362,11.4970728 4.74059717,10.5919866 4.7,9.68 L4.7,9.68 Z M8.33,13.68 L8.33,16.77 C7.36631795,16.4037756 6.57444546,15.690377 6.11,14.77 C5.90471384,14.4232081 5.72426185,14.0623041 5.57,13.69 L8.33,13.68 Z M9.68,16.77 L9.68,13.73 L12.44,13.73 C12.2857382,14.1023041 12.1052862,14.4632081 11.9,14.81 C11.4355545,15.730377 10.6436821,16.4437756 9.68,16.81 L9.68,16.77 Z M9.68,12.33 L9.68,9.63 L13.3,9.63 C13.2594028,10.5419866 13.1219638,11.4470728 12.89,12.33 L9.68,12.33 Z M14.39,9.63 L16.9,9.63 C16.8200417,10.566405 16.5727946,11.4808804 16.17,12.33 L14,12.33 C14.2102491,11.4606837 14.3374867,10.573369 14.38,9.68 L14.39,9.63 Z M14.39,8.28 C14.3442064,7.38631004 14.2136199,6.498991 14,5.63 L16.16,5.63 C16.5627946,6.47911958 16.8100417,7.39359504 16.89,8.33 L14.39,8.28 Z M15.39,4.28 L13.6,4.28 C13.2761223,3.37030005 12.8066804,2.51922545 12.21,1.76 C13.4543816,2.31857928 14.5352785,3.18605067 15.35,4.28 L15.39,4.28 Z M5.79,1.76 C5.19331963,2.51922545 4.72387769,3.37030005 4.4,4.28 L2.65,4.28 C3.46472154,3.18605067 4.54561843,2.31857928 5.79,1.76 L5.79,1.76 Z M2.64,13.76 L4.4,13.76 C4.72387769,14.6696999 5.19331963,15.5207745 5.79,16.28 C4.54217533,15.7130139 3.46094647,14.8349459 2.65,13.73 L2.64,13.76 Z M12.2,16.28 C12.7966804,15.5207745 13.2661223,14.6696999 13.59,13.76 L15.35,13.76 C14.530299,14.8392953 13.4498383,15.6926527 12.21,16.24 L12.2,16.28 Z"></path>
</svg>
