<?xml version="1.0" encoding="utf-8"?>
<!-- Generated by IcoMoon.io -->
<!DOCTYPE svg PUBLIC "-//W3C//DTD SVG 1.1//EN" "http://www.w3.org/Graphics/SVG/1.1/DTD/svg11.dtd">
<svg version="1.1" xmlns="http://www.w3.org/2000/svg" xmlns:xlink="http://www.w3.org/1999/xlink" width="20" height="20" viewBox="0 0 20 20">
<path d="M18 18v-16h-16v16h16zM16 5h-12v-1h12v1zM7 7v3h3c0 1.66-1.34 3-3 3s-3-1.34-3-3 1.34-3 3-3zM8 9v-2c1.1 0 2 0.9 2 2h-2zM16 8h-4v-1h4v1zM16 11h-4v-2h4v2zM16 13h-4v-1h4v1zM16 16h-12v-1h12v1z"></path>
</svg>
