<?xml version="1.0" encoding="utf-8"?>
<!-- Generated by IcoMoon.io -->
<!DOCTYPE svg PUBLIC "-//W3C//DTD SVG 1.1//EN" "http://www.w3.org/Graphics/SVG/1.1/DTD/svg11.dtd">
<svg version="1.1" xmlns="http://www.w3.org/2000/svg" xmlns:xlink="http://www.w3.org/1999/xlink" width="20" height="20" viewBox="0 0 20 20">
<path d="M4.46 5.16l0.54 2.3-0.54 2.29 2.010 1.24 1.23 2.010 2.3-0.54 2.3 0.54 1.23-2.010 2.010-1.24-0.54-2.29 0.54-2.3-2-1.24-1.24-2.010-2.3 0.55-2.29-0.54-1.25 2zM10.010 11.5c-2.22 0-4.010-1.79-4.010-4.010 0-2.2 1.79-3.99 4.010-3.99 2.2 0 3.99 1.79 3.99 3.99 0 2.22-1.79 4.010-3.99 4.010zM9.99 10.5c-1.66 0-2.99-1.34-2.99-3 0-1.65 1.33-3 2.99-3s3.010 1.35 3.010 3c0 1.66-1.35 3-3.010 3zM13.83 11.6l-1.28 2.24-2.080-0.47 2.53 5.83 1.4-2.2h2.5zM6.13 11.67l1.25 2.25 2.13-0.51-2.51 5.79-1.4-2.2h-2.5z"></path>
</svg>
