<?xml version="1.0" encoding="utf-8"?>
<!-- Generated by IcoMoon.io -->
<!DOCTYPE svg PUBLIC "-//W3C//DTD SVG 1.1//EN" "http://www.w3.org/Graphics/SVG/1.1/DTD/svg11.dtd">
<svg version="1.1" xmlns="http://www.w3.org/2000/svg" xmlns:xlink="http://www.w3.org/1999/xlink" width="20" height="20" viewBox="0 0 20 20">
<path d="M13.65 2.88c3.93 2.010 5.48 6.84 3.47 10.77s-6.83 5.48-10.77 3.47c-1.87-0.96-3.2-2.56-3.86-4.4l1.64-1.030c0.45 1.57 1.52 2.95 3.080 3.76 3.010 1.54 6.69 0.35 8.23-2.66 1.55-3.010 0.36-6.69-2.65-8.24-3.010-1.54-6.69-0.35-8.23 2.66l1.88 0.97-4.95 3.080-0.39-5.82 1.78 0.91c2.020-3.95 6.87-5.46 10.77-3.47zM9.29 10.71c-0.18-0.18-0.29-0.43-0.29-0.71 0-0.070 0.030-0.12 0.040-0.19h-0.010l0.97-4.81 0.97 4.81 3.030 3.19-4.5-2.12 0.020-0.020c-0.080-0.040-0.16-0.090-0.23-0.15z"></path>
</svg>
