<?xml version="1.0" encoding="utf-8"?>
<!-- Generated by IcoMoon.io -->
<!DOCTYPE svg PUBLIC "-//W3C//DTD SVG 1.1//EN" "http://www.w3.org/Graphics/SVG/1.1/DTD/svg11.dtd">
<svg version="1.1" xmlns="http://www.w3.org/2000/svg" xmlns:xlink="http://www.w3.org/1999/xlink" width="20" height="20" viewBox="0 0 20 20">
<path d="M8.75 5.77c0-1.38-1.75-3.77-1.75-3.77s-1.75 2.39-1.75 3.77 0.65 1.73 1.75 1.73 1.75-0.35 1.75-1.73zM14.75 5.77c0-1.38-1.75-3.77-1.75-3.77s-1.75 2.39-1.75 3.77 0.65 1.73 1.75 1.73 1.75-0.35 1.75-1.73zM9 17v-8c0-0.55-0.45-1-1-1h-2c-0.55 0-1 0.45-1 1v8c0 0.55 0.45 1 1 1h2c0.55 0 1-0.45 1-1zM15 17v-8c0-0.55-0.45-1-1-1h-2c-0.55 0-1 0.45-1 1v8c0 0.55 0.45 1 1 1h2c0.55 0 1-0.45 1-1zM6 11l2-1v2l-2 1v-2zM12 11l2-1v2l-2 1v-2zM6 14l2-1v2l-2 1v-2zM12 14l2-1v2l-2 1v-2z"></path>
</svg>
