<?xml version="1.0" encoding="utf-8"?>
<!-- Generated by IcoMoon.io -->
<!DOCTYPE svg PUBLIC "-//W3C//DTD SVG 1.1//EN" "http://www.w3.org/Graphics/SVG/1.1/DTD/svg11.dtd">
<svg version="1.1" xmlns="http://www.w3.org/2000/svg" xmlns:xlink="http://www.w3.org/1999/xlink" width="20" height="20" viewBox="0 0 20 20">
<path d="M13.5 7h-7c-0.83 0-1.5-0.67-1.5-1.5s0.67-1.5 1.5-1.5h1.59c-0.050-0.16-0.090-0.32-0.090-0.5 0-0.83 0.67-1.5 1.5-1.5h1c0.83 0 1.5 0.67 1.5 1.5 0 0.18-0.040 0.34-0.090 0.5h1.59c0.83 0 1.5 0.67 1.5 1.5s-0.67 1.5-1.5 1.5zM4 8h12c0.55 0 1 0.45 1 1s-0.45 1-1 1h-12c-0.55 0-1-0.45-1-1s0.45-1 1-1zM5 11h10c0.55 0 1 0.45 1 1s-0.45 1-1 1h-10c-0.55 0-1-0.45-1-1s0.45-1 1-1zM7 14h6c0.55 0 1 0.45 1 1s-0.45 1-1 1h-1.090c0.050 0.16 0.090 0.32 0.090 0.5 0 0.83-0.67 1.5-1.5 1.5h-1c-0.83 0-1.5-0.67-1.5-1.5 0-0.18 0.040-0.34 0.090-0.5h-1.090c-0.55 0-1-0.45-1-1s0.45-1 1-1z"></path>
</svg>
