<?xml version="1.0" encoding="utf-8"?>
<!-- Generated by IcoMoon.io -->
<!DOCTYPE svg PUBLIC "-//W3C//DTD SVG 1.1//EN" "http://www.w3.org/Graphics/SVG/1.1/DTD/svg11.dtd">
<svg version="1.1" xmlns="http://www.w3.org/2000/svg" xmlns:xlink="http://www.w3.org/1999/xlink" width="20" height="20" viewBox="0 0 20 20">
<path d="M17.54 10.29c1.17 1.17 1.17 3.080 0 4.25-1.18 1.17-3.080 1.17-4.25 0l-0.34-0.52c0 3.66-2 4.38-2.95 4.98-0.82-0.6-2.95-1.28-2.95-4.98l-0.34 0.52c-1.17 1.17-3.070 1.17-4.25 0-1.17-1.17-1.17-3.080 0-4.25 0 0 1.020-0.67 2.1-1.3-0.85-1.15-1.36-2.57-1.36-4.11 0-0.34 0.030-0.67 0.080-1 0.25 1.78 1.19 3.34 2.52 4.42 0.67-0.35 1.85-0.83 2.37-0.92h-0.17c-1.1 0-2-0.9-2-2s0.9-2 2-2v-0.5c0-0.28 0.22-0.5 0.5-0.5s0.5 0.22 0.5 0.5v0.5h2v-0.5c0-0.28 0.22-0.5 0.5-0.5s0.5 0.22 0.5 0.5v0.5c1.1 0 2 0.9 2 2s-0.9 2-2 2h-0.17c0.51 0.090 1.78 0.61 2.38 0.92 1.33-1.080 2.27-2.64 2.52-4.42 0.050 0.33 0.080 0.66 0.080 1 0 1.54-0.51 2.96-1.36 4.11 1.080 0.63 2.090 1.3 2.090 1.3zM8.5 6.38c0.5 0 1-0.45 1-1s-0.45-1-1-1-1 0.45-1 1 0.45 1 1 1zM11.5 4.38c-0.55 0-1 0.45-1 1s0.45 1 1 1 1-0.45 1-1-0.45-1-1-1zM9.2 10.11c-0.12 0.11-0.19 0.26-0.19 0.43 0.020 0.25 0.23 0.46 0.49 0.46h1c0.26 0 0.47-0.21 0.49-0.46 0-0.15-0.070-0.29-0.19-0.43-0.080-0.060-0.18-0.11-0.3-0.11h-1c-0.12 0-0.22 0.050-0.3 0.11zM12 12.5c0-0.12-0.060-0.28-0.19-0.38-0.090-0.070-0.19-0.12-0.31-0.12h-3c-0.12 0-0.22 0.050-0.31 0.12-0.11 0.1-0.19 0.25-0.19 0.38 0 0.28 0.22 0.5 0.5 0.5h3c0.28 0 0.5-0.22 0.5-0.5zM8.5 15h3c0.28 0 0.5-0.22 0.5-0.5s-0.22-0.5-0.5-0.5h-3c-0.28 0-0.5 0.22-0.5 0.5s0.22 0.5 0.5 0.5zM9.5 17h1c0.28 0 0.5-0.22 0.5-0.5s-0.22-0.5-0.5-0.5h-1c-0.28 0-0.5 0.22-0.5 0.5s0.22 0.5 0.5 0.5z"></path>
</svg>
