<?xml version="1.0" encoding="utf-8"?>
<!-- Generated by IcoMoon.io -->
<!DOCTYPE svg PUBLIC "-//W3C//DTD SVG 1.1//EN" "http://www.w3.org/Graphics/SVG/1.1/DTD/svg11.dtd">
<svg version="1.1" xmlns="http://www.w3.org/2000/svg" xmlns:xlink="http://www.w3.org/1999/xlink" width="20" height="20" viewBox="0 0 20 20">
<path d="M10.44 1.66c-0.59-0.58-1.54-0.58-2.12 0l-5.66 5.66c-0.58 0.58-0.58 1.53 0 2.12 0.6 0.6 1.56 0.56 2.12 0l5.66-5.66c0.58-0.58 0.59-1.53 0-2.12zM13.27 4.49c-0.59-0.59-1.54-0.59-2.12 0l-5.66 5.66c-0.59 0.58-0.59 1.53 0 2.12 0.6 0.6 1.56 0.55 2.12 0l5.66-5.66c0.58-0.58 0.58-1.53 0-2.12zM14.33 11.21l4.18 4.18c0.59 0.58 0.59 1.53 0 2.12s-1.54 0.59-2.12 0l-4.18-4.18-1.77 1.77c-0.59 0.58-1.54 0.58-2.12 0-0.59-0.59-0.59-1.54 0-2.13l5.66-5.65c0.58-0.59 1.53-0.59 2.12 0 0.58 0.58 0.58 1.53 0 2.12zM5 15c0-1.59-1.66-4-1.66-4s-1.34 2.78-1.34 4 0.6 2 1.34 2h0.32c0.74 0 1.34-0.41 1.34-2z"></path>
</svg>
