<?xml version="1.0" encoding="utf-8"?>
<!-- Generated by IcoMoon.io -->
<!DOCTYPE svg PUBLIC "-//W3C//DTD SVG 1.1//EN" "http://www.w3.org/Graphics/SVG/1.1/DTD/svg11.dtd">
<svg version="1.1" xmlns="http://www.w3.org/2000/svg" xmlns:xlink="http://www.w3.org/1999/xlink" width="20" height="20" viewBox="0 0 20 20">
<path d="M9 3c0-0.67-0.47-1.43-1-2-0.5 0.5-1 1.38-1 2 0 0.48 0.45 1 1 1s1-0.47 1-1zM13 3c0-0.67-0.47-1.43-1-2-0.5 0.5-1 1.38-1 2 0 0.48 0.45 1 1 1s1-0.47 1-1zM9 9v-3.5c0-0.55-0.45-1-1-1-0.57 0-1 0.49-1 1v3.5c0 0.55 0.45 1 1 1 0.57 0 1-0.49 1-1zM13 9v-3.5c0-0.55-0.45-1-1-1-0.57 0-1 0.49-1 1v3.5c0 0.55 0.45 1 1 1 0.57 0 1-0.49 1-1zM17 10c0-1.48-1.41-2.77-3.5-3.46v2.46c0 0.83-0.67 1.5-1.5 1.5s-1.5-0.67-1.5-1.5v-2.99c-0.17 0-0.33-0.010-0.5-0.010s-0.33 0.010-0.5 0.010v2.99c0 0.83-0.67 1.5-1.5 1.5s-1.5-0.67-1.5-1.5v-2.46c-2.090 0.69-3.5 1.98-3.5 3.46 0 1.41 0.95 2.65 3.21 3.37 1.11 0.35 2.39 1.12 3.79 1.12s2.69-0.78 3.79-1.13c2.25-0.71 3.21-1.95 3.21-3.36zM10 15.43c1.43 0 2.74-0.79 3.88-1.11 1.9-0.53 2.49-1.34 3.12-2.32v3c0 2.21-3.13 4-7 4s-7-1.79-7-4v-3c0.64 0.99 1.32 1.8 3.15 2.33 1.13 0.33 2.44 1.1 3.85 1.1z"></path>
</svg>
