<?xml version="1.0" encoding="utf-8"?>
<!-- Generated by IcoMoon.io -->
<!DOCTYPE svg PUBLIC "-//W3C//DTD SVG 1.1//EN" "http://www.w3.org/Graphics/SVG/1.1/DTD/svg11.dtd">
<svg version="1.1" xmlns="http://www.w3.org/2000/svg" xmlns:xlink="http://www.w3.org/1999/xlink" width="20" height="20" viewBox="0 0 20 20">
<path d="M15.45 6.25c1.83 0.94 1.98 3.18 0.7 4.98-0.8 1.12-2.33 1.88-3.46 1.78l-2.64 4.99h-1.050l-2.65-4.99c-1.13 0.16-2.73-0.63-3.55-1.79-1.28-1.8-1.13-4.040 0.71-4.97 0.48-0.24 0.96-0.33 1.43-0.31-0.010 0.4 0.010 0.8 0.070 1.21 0.26 1.69 1.41 3.53 2.86 4.37-0.19 0.55-0.49 0.99-0.88 1.25l2.010 3.81v-5.66c-1.36-0.37-2.74-2.16-3-3.92-0.4-2.65 1-5 3.5-5s3.9 2.35 3.5 5c-0.26 1.76-1.64 3.55-3 3.92v5.77l2.070-3.84c-0.44-0.23-0.77-0.71-0.99-1.3 1.48-0.83 2.65-2.69 2.91-4.4 0.060-0.41 0.080-0.82 0.070-1.22 0.46-0.010 0.92 0.080 1.39 0.32z"></path>
</svg>
