<?xml version="1.0" encoding="utf-8"?>
<!-- Generated by IcoMoon.io -->
<!DOCTYPE svg PUBLIC "-//W3C//DTD SVG 1.1//EN" "http://www.w3.org/Graphics/SVG/1.1/DTD/svg11.dtd">
<svg version="1.1" xmlns="http://www.w3.org/2000/svg" xmlns:xlink="http://www.w3.org/1999/xlink" width="20" height="20" viewBox="0 0 20 20">
<path d="M10 0c5.52 0 10 4.48 10 10s-4.48 10-10 10-10-4.48-10-10 4.48-10 10-10zM10 0.5c-5.25 0-9.5 4.25-9.5 9.5s4.25 9.5 9.5 9.5 9.5-4.25 9.5-9.5-4.25-9.5-9.5-9.5zM10 1.5c4.7 0 8.5 3.8 8.5 8.5s-3.8 8.5-8.5 8.5-8.5-3.8-8.5-8.5 3.8-8.5 8.5-8.5zM11.8 3.21c-0.57 0-1.1 0.17-1.55 0.45 1.56 0.37 2.73 1.77 2.73 3.45 0 0.69-0.21 1.33-0.55 1.87 1.31-0.29 2.29-1.45 2.29-2.85 0-1.61-1.31-2.92-2.92-2.92zM9.42 4.21c-1.61 0-2.92 1.31-2.92 2.93 0 1.61 1.31 2.92 2.92 2.92 1.62 0 2.93-1.31 2.93-2.92 0-1.62-1.31-2.93-2.93-2.93zM13.67 9.22l-0.51 0.59c2.34 0.69 2.45 3.61 2.45 3.61h1.28c0-4.71-3.22-4.2-3.22-4.2zM11.57 10.020l-2.12 2.090-2.12-2.090c-4.21 0.22-3.44 4.98-3.44 4.98h11.080c0.47-4.98-3.4-4.98-3.4-4.98z"></path>
</svg>
