<?xml version="1.0" encoding="utf-8"?>
<!-- Generator: Adobe Illustrator 23.0.1, SVG Export Plug-In . SVG Version: 6.00 Build 0)  -->
<svg version="1.1" id="Layer_1" xmlns="http://www.w3.org/2000/svg" xmlns:xlink="http://www.w3.org/1999/xlink" x="0px" y="0px"
	 viewBox="0 0 20 20" style="enable-background:new 0 0 20 20;" xml:space="preserve">
<path d="M4.5,6.2C3.7,7.3,3.3,8.6,3.3,10c0,1,0.2,1.9,0.6,2.8l1-4.6C5.2,6.5,5.3,6.2,4.5,6.2z M8.5,12.6c0.3-1.3,0-2.3-1.1-2.3
	c-0.8,0-1.6,0.6-1.8,1.5l-0.3,1.7c-0.3,1,0.3,1.5,1,1.5C7.5,15,8.2,13.9,8.5,12.6z M10,2c-4.4,0-8,3.6-8,8s3.6,8,8,8s8-3.6,8-8
	S14.4,2,10,2z M10,17.5c-2.1,0-4-0.8-5.3-2.2c-0.3-0.4-0.7-0.8-1-1.2C3,12.9,2.5,11.5,2.5,10c0-4.1,3.4-7.5,7.5-7.5s7.5,3.4,7.5,7.5
	S14.1,17.5,10,17.5z M13.8,12.6c0.3-1.3,0-2.3-1.1-2.3c-0.8,0-1.6,0.6-1.8,1.5l-0.4,1.7c-0.2,1.1,0.4,1.6,1.1,1.6
	C12.7,15,13.5,13.9,13.8,12.6z M10,3.3c-2,0-3.9,0.9-5.1,2.3c0.6-0.1,1.4-0.2,1.8-0.3c0.2,0,0.2,0.1,0.2,0.2c0,0.2-1,4.8-1,4.8
	C6.4,10,7.1,9.6,7.7,9.6c0.9,0,1.5,0.4,1.9,0.9l0.5-2.4c0.4-1.6,0.4-1.9-0.4-1.9c-0.4,0-0.4-0.5,0-0.6c0.6-0.1,1.8-0.2,2.3-0.3
	c0.2,0,0.2,0.1,0.2,0.2l-1,4.8c0.5-0.4,1.2-0.7,1.9-0.7c1.7,0,2.5,1.3,2.1,3c-0.3,1.7-2,3-3.8,3c-1.3,0-2.1-0.7-2.3-1.4
	c-0.7,0.8-1.7,1.3-2.8,1.4c1.1,0.7,2.4,1.1,3.7,1.1c3.7,0,6.7-3,6.7-6.7S13.7,3.3,10,3.3z"/>
</svg>
