<?xml version="1.0" encoding="utf-8"?>
<!-- Generated by IcoMoon.io -->
<!DOCTYPE svg PUBLIC "-//W3C//DTD SVG 1.1//EN" "http://www.w3.org/Graphics/SVG/1.1/DTD/svg11.dtd">
<svg version="1.1" xmlns="http://www.w3.org/2000/svg" xmlns:xlink="http://www.w3.org/1999/xlink" width="20" height="20" viewBox="0 0 20 20">
<path d="M8 1v7h2v-2c0-1.52 1.45-3 3-3v0.86c0.55-0.52 1.26-0.86 2-0.86v3h1c1.1 0 2 0.9 2 2s-0.9 2-2 2h-1v6c0 0.55-0.45 1-1 1s-1-0.45-1-1v-2.18c-0.31 0.11-0.65 0.18-1 0.18v2c0 0.55-0.45 1-1 1s-1-0.45-1-1v-2h-2v2c0 0.55-0.45 1-1 1s-1-0.45-1-1v-2c-0.35 0-0.69-0.070-1-0.18v2.18c0 0.55-0.45 1-1 1s-1-0.45-1-1v-4h-1v-1c0-1.66 1.34-3 3-3h2v-7h1zM13 8c0.55 0 1-0.45 1-1s-0.45-1-1-1-1 0.45-1 1 0.45 1 1 1z"></path>
</svg>
