<?xml version="1.0" encoding="utf-8"?>
<!-- Generated by IcoMoon.io -->
<!DOCTYPE svg PUBLIC "-//W3C//DTD SVG 1.1//EN" "http://www.w3.org/Graphics/SVG/1.1/DTD/svg11.dtd">
<svg version="1.1" xmlns="http://www.w3.org/2000/svg" xmlns:xlink="http://www.w3.org/1999/xlink" width="20" height="20" viewBox="0 0 20 20">
<path d="M10.98 6.78l4.52 8.22c-1 2-3.5 3-5.5 3s-4.5-1-5.5-3l4.5-8.18c-0.75-1.23-2.28-1.98-4.29-2.030l2.46-2.92c1.68 1.19 2.46 2.32 2.97 3.31 0.56-0.87 1.2-1.68 2.7-2.12l1.83 2.86c-1.42-0.34-2.64 0.080-3.69 0.86zM8.17 10.4l-0.93 1.69c0.49 0.11 1 0.16 1.54 0.16 1.35 0 2.58-0.36 3.55-0.95l-1.010-1.82c-0.87 0.53-1.96 0.86-3.15 0.92zM9.030 15.78c1.99 0 3.73-0.74 4.74-1.86l-0.98-1.76c-1 1.12-2.74 1.87-4.74 1.87-0.62 0-1.21-0.080-1.76-0.21l-0.63 1.15c0.94 0.5 2.1 0.81 3.37 0.81z"></path>
</svg>
