<?xml version="1.0" encoding="utf-8"?>
<!-- Generated by IcoMoon.io -->
<!DOCTYPE svg PUBLIC "-//W3C//DTD SVG 1.1//EN" "http://www.w3.org/Graphics/SVG/1.1/DTD/svg11.dtd">
<svg version="1.1" xmlns="http://www.w3.org/2000/svg" xmlns:xlink="http://www.w3.org/1999/xlink" width="20" height="20" viewBox="0 0 20 20">
<path d="M3 20h14v-20h-14v20zM7 3h-2v-2h2v2zM11 3h-2v-2h2v2zM15 3h-2v-2h2v2zM7 6h-2v-2h2v2zM11 6h-2v-2h2v2zM15 6h-2v-2h2v2zM7 9h-2v-2h2v2zM11 9h-2v-2h2v2zM15 9h-2v-2h2v2zM7 12h-2v-2h2v2zM11 12h-2v-2h2v2zM15 12h-2v-2h2v2zM11 19h-6v-6h6v6zM15 15h-2v-2h2v2zM15 18h-2v-2h2v2z"></path>
</svg>
