<?xml version="1.0" encoding="utf-8"?>
<!-- Generator: Adobe Illustrator 22.1.0, SVG Export Plug-In . SVG Version: 6.00 Build 0)  -->
<svg version="1.1" id="Layer_1" xmlns="http://www.w3.org/2000/svg" xmlns:xlink="http://www.w3.org/1999/xlink" x="0px" y="0px"
	 viewBox="0 0 20 20" style="enable-background:new 0 0 20 20;" xml:space="preserve">
<path d="M17,16.9v-2.5c0-0.7-0.1-1.4-0.5-2.1c-0.4-0.7-0.9-1.3-1.6-1.7C14.2,10.1,12.7,10,12,10l-1.6,1.7L11,13v3l-1,1.1L9,16v-3
	l0.7-1.3L8,10c-0.8,0-2.3,0.1-3,0.6c-0.7,0.4-1.1,1-1.5,1.7S3,13.6,3,14.4v2.5c0,0,2.6,1.1,7,1.1S17,16.9,17,16.9z"/>
<path d="M10,2.1c-1.9,0-3,1.8-2.7,3.8c0.3,2,1.3,3.4,2.7,3.4s2.4-1.4,2.7-3.4C13,3.8,11.9,2.1,10,2.1z"/>
</svg>
