<?xml version="1.0" encoding="utf-8"?>
<!-- Generator: Adobe Illustrator 22.1.0, SVG Export Plug-In . SVG Version: 6.00 Build 0)  -->
<svg version="1.1" id="Layer_1" xmlns="http://www.w3.org/2000/svg" xmlns:xlink="http://www.w3.org/1999/xlink" x="0px" y="0px"
	 viewBox="0 0 20 20" style="enable-background:new 0 0 20 20;" xml:space="preserve">
<g>
	<path d="M16,11c-0.9-0.8-2.2-0.9-3.4-1l1,2.1L10,15.8l-3.6-3.6l1-2.2c-1.2,0-2.5,0.2-3.4,1c-0.8,0.7-1,1.9-1,3.1C3,15,3,16,3,16.9
		c0,0,3.4,1.2,7,1.1c3.6,0.1,7-1.1,7-1.1c0-0.9,0-1.9,0-2.8C17,13,16.8,11.8,16,11z"/>
	<path d="M6.6,9.3c0.8,0,2-0.4,2.2-0.7C8,7.6,7.3,6.6,8,4.7c0,0,1.1,1.2,4.3,1.5c0,1-0.5,1.7-1.1,2.4c0.2,0.3,1.4,0.7,2.2,0.7
		s1.4-0.2,1.4-0.5c0-0.3-1.3-1.3-1.6-2.2c-0.3-0.9-0.1-1.9-0.5-3.1C12.1,2.1,10.7,2,10,2C9.3,2,7.9,2.1,7.3,3.5
		C6.9,4.7,7.1,5.7,6.8,6.6C6.5,7.5,5.2,8.5,5.2,8.8C5.2,9.1,5.8,9.3,6.6,9.3z"/>
	<polygon points="10,11 7.7,10 10,15.8 12.3,10 	"/>
</g>
</svg>
