<?xml version="1.0" encoding="utf-8"?>
<!-- Generator: Adobe Illustrator 22.1.0, SVG Export Plug-In . SVG Version: 6.00 Build 0)  -->
<svg version="1.1" id="Layer_1" xmlns="http://www.w3.org/2000/svg" xmlns:xlink="http://www.w3.org/1999/xlink" x="0px" y="0px"
	 viewBox="0 0 20 20" style="enable-background:new 0 0 20 20;" xml:space="preserve">
<path d="M13.2,10L11,13l-1-1.4L9,13l-2.2-3C3,11,3,13,3,16.9c0,0,3,1.1,6.4,1.1h1.2c3.4-0.1,6.4-1.1,6.4-1.1C17,13,17,11,13.2,10z
	 M10,10.7L8.4,10l1.6,1.6l1.6-1.6L10,10.7z"/>
<path d="M10,2.1c-1.9,0-3,1.8-2.7,3.8c0.3,2,1.3,3.4,2.7,3.4s2.4-1.4,2.7-3.4C13,3.8,11.9,2.1,10,2.1z"/>
</svg>
