<?xml version="1.0" encoding="utf-8"?>
<!-- Generated by IcoMoon.io -->
<!DOCTYPE svg PUBLIC "-//W3C//DTD SVG 1.1//EN" "http://www.w3.org/Graphics/SVG/1.1/DTD/svg11.dtd">
<svg version="1.1" xmlns="http://www.w3.org/2000/svg" xmlns:xlink="http://www.w3.org/1999/xlink" width="20" height="20" viewBox="0 0 20 20">
<path d="M15 4h3v14h-16v-14h3v-1c0-0.83 0.67-1.5 1.5-1.5s1.5 0.67 1.5 1.5v1h4v-1c0-0.83 0.67-1.5 1.5-1.5s1.5 0.67 1.5 1.5v1zM6 3v2.5c0 0.28 0.22 0.5 0.5 0.5s0.5-0.22 0.5-0.5v-2.5c0-0.28-0.22-0.5-0.5-0.5s-0.5 0.22-0.5 0.5zM13 3v2.5c0 0.28 0.22 0.5 0.5 0.5s0.5-0.22 0.5-0.5v-2.5c0-0.28-0.22-0.5-0.5-0.5s-0.5 0.22-0.5 0.5zM17 17v-9h-14v9h14zM7 16v-7h-2v7h2zM11 16v-7h-2v7h2zM15 16v-7h-2v7h2z"></path>
</svg>
