<?xml version="1.0" encoding="utf-8"?>
<!-- Generated by IcoMoon.io -->
<!DOCTYPE svg PUBLIC "-//W3C//DTD SVG 1.1//EN" "http://www.w3.org/Graphics/SVG/1.1/DTD/svg11.dtd">
<svg version="1.1" xmlns="http://www.w3.org/2000/svg" xmlns:xlink="http://www.w3.org/1999/xlink" width="20" height="20" viewBox="0 0 20 20">
<path d="M2 18.43c1.51 1.36 11.64-4.67 13.14-7.21 0.72-1.22-0.13-3.010-1.52-4.44 1.58-1.050 2.97 2.22 4.29 1.53 0.6-0.32 0.99-1.31 0.7-1.92-0.52-1.080-2.25-1.080-3.42-1.21 0.83-0.2 2.82-1.050 2.86-2.25 0.040-0.92-1.13-1.97-2.050-1.86-1.21 0.14-1.65 1.88-2.060 3-0.050-0.71-0.2-2.27-0.98-2.95-1.040-0.91-2.29-0.050-2.32 1.050-0.040 1.33 2.82 2.070 1.92 3.67-1.52-1.17-3.31-1.81-4.46-1.14-0.49 0.31-1.050 0.91-1.63 1.69 0.89 0.94 2.12 2.070 3.090 2.72 0.2 0.14 0.26 0.42 0.11 0.62-0.14 0.21-0.42 0.26-0.62 0.12-0.99-0.67-2.2-1.78-3.1-2.71-0.45 0.67-0.91 1.43-1.34 2.23 0.85 0.86 1.93 1.83 2.79 2.41 0.2 0.14 0.25 0.42 0.11 0.62-0.14 0.21-0.42 0.26-0.63 0.12-0.85-0.58-1.86-1.48-2.71-2.32-1.77 3.49-3.070 7.43-2.17 8.23z"></path>
</svg>
