<?xml version="1.0" encoding="utf-8"?>
<!-- Generated by IcoMoon.io -->
<!DOCTYPE svg PUBLIC "-//W3C//DTD SVG 1.1//EN" "http://www.w3.org/Graphics/SVG/1.1/DTD/svg11.dtd">
<svg version="1.1" xmlns="http://www.w3.org/2000/svg" xmlns:xlink="http://www.w3.org/1999/xlink" width="20" height="20" viewBox="0 0 20 20">
<path d="M18 3.5c0 0.62-0.38 1.16-0.92 1.38v13.11h-15.090l4.22-6.73c-0.13-0.23-0.21-0.48-0.21-0.76 0-0.83 0.67-1.5 1.5-1.5s1.5 0.67 1.5 1.5c0 0.13-0.020 0.25-0.050 0.37l1.44 0.63c0.27-0.3 0.67-0.5 1.11-0.5 0.18 0 0.35 0.040 0.51 0.090l3.58-6.41c-0.36-0.27-0.59-0.7-0.59-1.18 0-0.83 0.67-1.5 1.5-1.5 0.19 0 0.36 0.040 0.53 0.1l0.050-0.090v0.11c0.54 0.22 0.92 0.76 0.92 1.38zM16.080 16.99v-11.14l-3.29 5.89c0.13 0.23 0.21 0.48 0.21 0.76 0 0.83-0.67 1.5-1.5 1.5s-1.5-0.67-1.5-1.5l0.010-0.070-1.63-0.72c-0.25 0.18-0.55 0.29-0.88 0.29-0.18 0-0.35-0.040-0.51-0.1l-3.2 5.090h12.29z"></path>
</svg>
