<?xml version="1.0" encoding="utf-8"?>
<!-- Generated by IcoMoon.io -->
<!DOCTYPE svg PUBLIC "-//W3C//DTD SVG 1.1//EN" "http://www.w3.org/Graphics/SVG/1.1/DTD/svg11.dtd">
<svg version="1.1" xmlns="http://www.w3.org/2000/svg" xmlns:xlink="http://www.w3.org/1999/xlink" width="20" height="20" viewBox="0 0 20 20">
<path d="M18 18l0.010-12.28c0.59-0.35 0.99-0.99 0.99-1.72 0-1.1-0.9-2-2-2s-2 0.9-2 2c0 0.8 0.47 1.48 1.14 1.8l-4.13 6.58c-0.33-0.24-0.73-0.38-1.16-0.38-0.84 0-1.55 0.51-1.85 1.24l-2.14-1.53c0.090-0.22 0.14-0.46 0.14-0.71 0-1.11-0.89-2-2-2-1.1 0-2 0.89-2 2 0 0.73 0.4 1.36 0.98 1.71l-2.98 5.29h17zM17 3c0.55 0 1 0.45 1 1s-0.45 1-1 1-1-0.45-1-1 0.45-1 1-1zM5 10c0.55 0 1 0.45 1 1s-0.45 1-1 1-1-0.45-1-1 0.45-1 1-1zM10.85 13c0.55 0 1 0.45 1 1s-0.45 1-1 1-1-0.45-1-1 0.45-1 1-1z"></path>
</svg>
