<?xml version="1.0" encoding="utf-8"?>
<!-- Generator: Adobe Illustrator 23.0.2, SVG Export Plug-In . SVG Version: 6.00 Build 0)  -->
<svg version="1.1" id="Layer_1" xmlns="http://www.w3.org/2000/svg" xmlns:xlink="http://www.w3.org/1999/xlink" x="0px" y="0px"
	 viewBox="0 0 20 20" enable-background="new 0 0 20 20" xml:space="preserve">
<path d="M6.1,9.5c0-0.4,0-0.7,0-1.1c0-0.5-0.2-0.7-0.7-0.8v0C6,7.5,6.2,7.3,6.2,6.7c0-0.4,0-0.8,0-1.1c0-0.4,0.1-0.5,0.7-0.5h0.3
	V4.6H6.6c-0.9,0-1.3,0.2-1.3,1c0,0.5,0.1,0.8,0.1,1.2c0,0.2-0.2,0.5-0.9,0.5v0.6c0.7,0,0.9,0.3,0.9,0.5c0,0.4-0.1,0.7-0.1,1.2
	c0,0.8,0.4,1,1.3,1h0.5V10H6.8C6.3,10,6.1,9.9,6.1,9.5z M16.5,13.9c-0.8-0.8-1.7-1.4-2.6-2c-0.1-0.1-1.1-1.1-1.5-1.4
	c2.4-4-1.1-9.2-5.7-8.5c-4.4,0.7-6.3,6.2-3.2,9.4c1.7,1.9,4.6,2.3,6.9,1.1c0.6,0.6,1.1,1.1,1.6,1.7c0.7,0.9,1.2,1.8,2.1,2.5
	c0.6,0.5,1.4,1.2,2.3,1.3c1.1,0.1,1.7-0.6,1.7-1.6C18,15.5,17.1,14.5,16.5,13.9z M7.6,11.6c-2.2,0-4-1.8-4-4c0-2.2,1.8-4,4-4
	s4,1.8,4,4S9.8,11.6,7.6,11.6z M9.7,6.8c0-0.4,0.1-0.7,0.1-1.2c0-0.8-0.4-1-1.3-1H8v0.5h0.3C8.8,5.1,9,5.2,9,5.6c0,0.4,0,0.7,0,1.1
	c0,0.5,0.2,0.7,0.7,0.8v0C9.1,7.7,8.9,7.9,8.9,8.4c0,0.4,0,0.8,0,1.1C9,9.9,8.8,10,8.3,10H8v0.6h0.5c0.9,0,1.3-0.2,1.3-1
	c0-0.5-0.1-0.8-0.1-1.2c0-0.2,0.2-0.5,0.9-0.5V7.3C9.9,7.3,9.7,7,9.7,6.8z"/>
</svg>
