<?xml version="1.0" encoding="utf-8"?>
<!-- Generated by IcoMoon.io -->
<!DOCTYPE svg PUBLIC "-//W3C//DTD SVG 1.1//EN" "http://www.w3.org/Graphics/SVG/1.1/DTD/svg11.dtd">
<svg version="1.1" xmlns="http://www.w3.org/2000/svg" xmlns:xlink="http://www.w3.org/1999/xlink" width="20" height="20" viewBox="0 0 20 20">
<path d="M2 7h4l5-4v14l-5-4h-4v-6zM14.69 4.54c0.13 0.050 3.31 1.38 3.31 5.46s-3.18 5.41-3.31 5.46c-0.060 0.030-0.13 0.040-0.19 0.040-0.2 0-0.39-0.12-0.46-0.31-0.11-0.26 0.020-0.55 0.27-0.65 0.11-0.050 2.69-1.15 2.69-4.54 0-3.41-2.66-4.53-2.69-4.54-0.25-0.1-0.38-0.39-0.27-0.65 0.1-0.25 0.39-0.38 0.65-0.27zM16 10c0 2.57-2.23 3.43-2.32 3.47-0.060 0.020-0.12 0.030-0.18 0.030-0.2 0-0.39-0.12-0.47-0.32-0.1-0.26 0.040-0.55 0.29-0.65 0.070-0.020 1.68-0.67 1.68-2.53s-1.61-2.51-1.68-2.53c-0.25-0.1-0.38-0.39-0.29-0.65 0.1-0.25 0.39-0.39 0.65-0.29 0.090 0.040 2.32 0.9 2.32 3.47z"></path>
</svg>
