<?xml version="1.0" encoding="utf-8"?>
<!-- Generated by IcoMoon.io -->
<!DOCTYPE svg PUBLIC "-//W3C//DTD SVG 1.1//EN" "http://www.w3.org/Graphics/SVG/1.1/DTD/svg11.dtd">
<svg version="1.1" xmlns="http://www.w3.org/2000/svg" xmlns:xlink="http://www.w3.org/1999/xlink" width="20" height="20" viewBox="0 0 20 20">
<path d="M3 2h14c0.55 0 1 0.45 1 1v10c0 0.55-0.45 1-1 1h-5v2h2c0.55 0 1 0.45 1 1v1h-10v-1c0-0.55 0.45-1 1-1h2v-2h-5c-0.55 0-1-0.45-1-1v-10c0-0.55 0.45-1 1-1zM16 11v-7h-12v7h12zM5 5h9l-9 4v-4z"></path>
</svg>
