<?xml version="1.0" encoding="utf-8"?>
<!-- Generator: Adobe Illustrator 23.0.1, SVG Export Plug-In . SVG Version: 6.00 Build 0)  -->
<svg version="1.1" id="Layer_1" xmlns="http://www.w3.org/2000/svg" xmlns:xlink="http://www.w3.org/1999/xlink" x="0px" y="0px"
	 viewBox="0 0 20 20" style="enable-background:new 0 0 20 20;" xml:space="preserve">
<path d="M15,8.8c0.1-0.1,0.3-0.1,0.4-0.1c0.1,0,0.3,0,0.4,0.1C15.9,8.9,16,9,16,9.1c0,0.1,0,0.2-0.1,0.3c0,0.1-0.1,0.2-0.2,0.3
	c-0.1,0.1-0.3,0.3-0.6,0.6l-1,1V12h2.8v-0.7h-1.7v0l0.5-0.5c0.2-0.2,0.5-0.5,0.7-0.7c0.1-0.1,0.2-0.3,0.3-0.5
	c0.1-0.2,0.1-0.3,0.1-0.5c0-0.2-0.1-0.4-0.2-0.6c-0.1-0.2-0.3-0.3-0.4-0.4C16,8,15.8,7.9,15.5,8c-0.2,0-0.3,0-0.5,0.1
	c-0.1,0-0.3,0.1-0.4,0.1c-0.2,0.1-0.3,0.2-0.5,0.4L14.6,9C14.7,8.9,14.9,8.8,15,8.8z M16.7,15.3C16.5,15.1,16.2,15,16,15v0
	c0.3-0.1,0.5-0.2,0.6-0.4c0.2-0.2,0.2-0.4,0.2-0.6c0-0.3-0.1-0.6-0.4-0.7c-0.3-0.2-0.6-0.3-1-0.3c-0.5,0-0.9,0.1-1.3,0.4l0.4,0.6
	c0.1-0.1,0.3-0.2,0.5-0.2c0.1,0,0.3-0.1,0.4-0.1c0.4,0,0.6,0.2,0.6,0.5c0,0.2-0.1,0.3-0.2,0.4c-0.2,0.1-0.5,0.1-0.7,0.1h-0.3v0.7
	h0.3c0.3,0,0.5,0,0.8,0.1c0.2,0.1,0.2,0.2,0.2,0.4c0,0.2-0.1,0.4-0.2,0.5c-0.2,0.1-0.4,0.2-0.6,0.2c-0.2,0-0.4,0-0.6-0.1
	c-0.2,0-0.4-0.1-0.5-0.2V17c0.4,0.2,0.8,0.2,1.2,0.2c0.4,0,0.9-0.1,1.2-0.3c0.3-0.2,0.4-0.6,0.4-0.9C17,15.7,16.9,15.5,16.7,15.3z
	 M15,4.2c0.1,0,0.2-0.1,0.3-0.3l0,0.4V7h0.8V3h-0.7l-1.3,1l0.4,0.5L15,4.2z M4,6h9V5H4V6z M4,11h9v-1H4V11z M4,16h9v-1H4V16z"/>
</svg>
