<?xml version="1.0" encoding="utf-8"?>
<!-- Generated by IcoMoon.io -->
<!DOCTYPE svg PUBLIC "-//W3C//DTD SVG 1.1//EN" "http://www.w3.org/Graphics/SVG/1.1/DTD/svg11.dtd">
<svg version="1.1" xmlns="http://www.w3.org/2000/svg" xmlns:xlink="http://www.w3.org/1999/xlink" width="20" height="20" viewBox="0 0 20 20">
<path d="M5.5 7c-0.83 0-1.5-0.67-1.5-1.5 0-0.82 0.67-1.5 1.5-1.5 0.82 0 1.5 0.68 1.5 1.5 0 0.83-0.68 1.5-1.5 1.5zM8 5h9v1h-9v-1zM5.5 12c-0.83 0-1.5-0.67-1.5-1.5 0-0.82 0.67-1.5 1.5-1.5 0.82 0 1.5 0.68 1.5 1.5 0 0.83-0.68 1.5-1.5 1.5zM8 10h9v1h-9v-1zM5.5 17c-0.83 0-1.5-0.67-1.5-1.5 0-0.82 0.67-1.5 1.5-1.5 0.82 0 1.5 0.68 1.5 1.5 0 0.83-0.68 1.5-1.5 1.5zM8 15h9v1h-9v-1z"></path>
</svg>
