<?xml version="1.0" encoding="utf-8"?>
<!-- Generated by IcoMoon.io -->
<!DOCTYPE svg PUBLIC "-//W3C//DTD SVG 1.1//EN" "http://www.w3.org/Graphics/SVG/1.1/DTD/svg11.dtd">
<svg version="1.1" xmlns="http://www.w3.org/2000/svg" xmlns:xlink="http://www.w3.org/1999/xlink" width="20" height="20" viewBox="0 0 20 20">
<path d="M12.38 2l2.62 3v1h-10v-1l2.64-3h4.74zM10 5c0.55 0 1-0.44 1-1 0-0.55-0.45-1-1-1s-1 0.45-1 1c0 0.56 0.45 1 1 1zM15.45 4h1.55c0.55 0 1 0.45 1 1v12c0 0.56-0.45 1-1 1h-14c-0.55 0-1-0.44-1-1v-12c0-0.55 0.45-1 1-1h1.55l-0.55 0.63v2.37h12v-2.37zM14 11v-2h-8v2h3v5h2v-5h3z"></path>
</svg>
