<?xml version="1.0" encoding="utf-8"?>
<!-- Generator: Adobe Illustrator 23.0.1, SVG Export Plug-In . SVG Version: 6.00 Build 0)  -->
<svg version="1.1" id="Layer_1" xmlns="http://www.w3.org/2000/svg" xmlns:xlink="http://www.w3.org/1999/xlink" x="0px" y="0px"
	 viewBox="0 0 20 20" style="enable-background:new 0 0 20 20;" xml:space="preserve">
<path d="M13,2H5.5C3,2,1,4,1,6.5S3,11,5.5,11H6v6c0,0.5,0.5,1,1,1s1-0.5,1-1V5c0-0.5,0.5-1,1-1s1,0.5,1,1v12c0,0.5,0.5,1,1,1
	s1-0.5,1-1V4h1c0.5,0,1-0.5,1-1S13.5,2,13,2z M14,6v8l5-4L14,6z"/>
</svg>
