<?xml version="1.0" encoding="utf-8"?>
<!-- Generated by IcoMoon.io -->
<!DOCTYPE svg PUBLIC "-//W3C//DTD SVG 1.1//EN" "http://www.w3.org/Graphics/SVG/1.1/DTD/svg11.dtd">
<svg version="1.1" xmlns="http://www.w3.org/2000/svg" xmlns:xlink="http://www.w3.org/1999/xlink" width="20" height="20" viewBox="0 0 20 20">
<path d="M15.84 2.76c0.25 0 0.49 0.040 0.71 0.11 0.23 0.070 0.44 0.16 0.64 0.25l0.35-0.81c-0.52-0.26-1.080-0.39-1.69-0.39-0.58 0-1.090 0.13-1.52 0.37-0.43 0.25-0.76 0.61-0.99 1.080-0.23 0.46-0.34 1.010-0.34 1.63 0 0.99 0.23 1.75 0.7 2.28s1.15 0.79 2.020 0.79c0.6 0 1.13-0.090 1.6-0.26v-0.84c-0.26 0.080-0.51 0.14-0.74 0.19-0.24 0.050-0.49 0.080-0.74 0.080-0.59 0-1.040-0.19-1.34-0.57-0.32-0.37-0.47-0.93-0.47-1.66 0-0.7 0.16-1.25 0.48-1.65 0.33-0.4 0.77-0.6 1.33-0.6zM6.5 8h1.040l-2.24-6h-1.060l-2.24 6h1.030l0.58-1.66h2.29zM8 2v6h2.17c0.67 0 1.19-0.15 1.57-0.46 0.38-0.3 0.56-0.72 0.56-1.26 0-0.4-0.1-0.72-0.3-0.95-0.19-0.24-0.5-0.39-0.93-0.47v-0.040c0.35-0.060 0.6-0.21 0.78-0.44 0.18-0.24 0.28-0.53 0.28-0.88 0-0.52-0.19-0.9-0.56-1.14-0.36-0.24-0.96-0.36-1.79-0.36h-1.78zM8.98 4.48v-1.66h0.85c0.44 0 0.77 0.060 0.97 0.19 0.21 0.12 0.31 0.33 0.31 0.61 0 0.31-0.1 0.53-0.29 0.66-0.18 0.13-0.48 0.2-0.89 0.2h-0.95zM5.64 5.5h-1.74l0.54-1.56c0.14-0.4 0.25-0.76 0.32-1.1l0.15 0.52c0.070 0.23 0.13 0.4 0.17 0.51zM8.98 5.27h0.99c0.44 0 0.76 0.080 0.98 0.23 0.21 0.15 0.32 0.38 0.32 0.69 0 0.34-0.11 0.59-0.32 0.75s-0.52 0.24-0.93 0.24h-1.040v-1.91zM4 13l5 5 9-8-1-1-8 6-4-3z"></path>
</svg>
