<?xml version="1.0" encoding="utf-8"?>
<!-- Generated by IcoMoon.io -->
<!DOCTYPE svg PUBLIC "-//W3C//DTD SVG 1.1//EN" "http://www.w3.org/Graphics/SVG/1.1/DTD/svg11.dtd">
<svg version="1.1" xmlns="http://www.w3.org/2000/svg" xmlns:xlink="http://www.w3.org/1999/xlink" width="20" height="20" viewBox="0 0 20 20">
<path d="M14.29 4.59l1.1 1.11c0.41 0.4 0.61 0.94 0.61 1.47v2.12c0 0.53-0.2 1.070-0.61 1.47l-6.63 6.63c-0.4 0.41-0.94 0.61-1.47 0.61s-1.070-0.2-1.47-0.61l-1.11-1.1-1.1-1.11c-0.41-0.4-0.61-0.94-0.61-1.47v-2.12c0-0.54 0.2-1.070 0.61-1.48l6.63-6.62c0.4-0.41 0.94-0.61 1.47-0.61s1.060 0.2 1.47 0.61zM8.080 14.29l6.42-6.42c0.39-0.39 0.39-1.030 0-1.43l-2.14-2.14c-0.19-0.19-0.45-0.29-0.72-0.29s-0.52 0.1-0.71 0.29l-6.42 6.42c-0.39 0.4-0.39 1.040 0 1.43l2.14 2.14c0.38 0.38 1.040 0.38 1.43 0z"></path>
</svg>
