<?xml version="1.0" encoding="utf-8"?>
<!-- Generated by IcoMoon.io -->
<!DOCTYPE svg PUBLIC "-//W3C//DTD SVG 1.1//EN" "http://www.w3.org/Graphics/SVG/1.1/DTD/svg11.dtd">
<svg version="1.1" xmlns="http://www.w3.org/2000/svg" xmlns:xlink="http://www.w3.org/1999/xlink" width="20" height="20" viewBox="0 0 20 20">
<path d="M6 4v13h4.54c1.37 0 2.46-0.33 3.26-1 0.8-0.66 1.2-1.58 1.2-2.77 0-0.84-0.17-1.51-0.51-2.010s-0.9-0.85-1.67-1.030v-0.090c0.57-0.1 1.020-0.4 1.36-0.9s0.51-1.13 0.51-1.91c0-1.14-0.39-1.98-1.17-2.5-0.77-0.53-2.020-0.79-3.74-0.79h-3.78zM8.57 9.15v-2.89h1.36c0.73 0 1.27 0.11 1.61 0.32 0.34 0.22 0.51 0.58 0.51 1.070 0 0.54-0.16 0.92-0.47 1.15s-0.82 0.35-1.51 0.35h-1.5zM8.57 11.34h1.6c1.44 0 2.16 0.53 2.16 1.61 0 0.6-0.17 1.050-0.51 1.34s-0.86 0.43-1.57 0.43h-1.68v-3.38z"></path>
</svg>
