<?xml version="1.0" encoding="utf-8"?>
<!-- Generated by IcoMoon.io -->
<!DOCTYPE svg PUBLIC "-//W3C//DTD SVG 1.1//EN" "http://www.w3.org/Graphics/SVG/1.1/DTD/svg11.dtd">
<svg version="1.1" xmlns="http://www.w3.org/2000/svg" xmlns:xlink="http://www.w3.org/1999/xlink" width="20" height="20" viewBox="0 0 20 20">
<path d="M10 5.4c1.27 0 2.24 0.36 2.91 1.080 0.66 0.71 1 1.76 1 3.13 0 1.28-0.23 2.37-0.69 3.27-0.47 0.89-1.27 1.52-2.22 2.12v2h6v-2h-3.69c0.92-0.64 1.62-1.34 2.12-2.34 0.49-1.010 0.74-2.13 0.74-3.35 0-1.78-0.55-3.19-1.65-4.22s-2.6-1.55-4.52-1.55-3.43 0.53-4.52 1.57c-1.1 1.040-1.65 2.44-1.65 4.2 0 1.21 0.24 2.31 0.73 3.33 0.48 1.010 1.19 1.71 2.1 2.36h-3.66v2h6v-2c-0.98-0.64-1.8-1.28-2.24-2.17-0.45-0.89-0.67-1.96-0.67-3.22 0-1.37 0.33-2.41 1-3.13 0.66-0.72 1.63-1.080 2.91-1.080z"></path>
</svg>
