<?xml version="1.0" encoding="utf-8"?>
<!-- Generated by IcoMoon.io -->
<!DOCTYPE svg PUBLIC "-//W3C//DTD SVG 1.1//EN" "http://www.w3.org/Graphics/SVG/1.1/DTD/svg11.dtd">
<svg version="1.1" xmlns="http://www.w3.org/2000/svg" xmlns:xlink="http://www.w3.org/1999/xlink" width="20" height="20" viewBox="0 0 20 20">
<path d="M15.82 12.25c0.26 0 0.5-0.020 0.74-0.070 0.23-0.050 0.48-0.12 0.73-0.2v0.84c-0.46 0.17-0.99 0.26-1.58 0.26-0.88 0-1.54-0.26-2.010-0.79-0.39-0.44-0.62-1.040-0.68-1.79h-0.94c0.12 0.21 0.18 0.48 0.18 0.79 0 0.54-0.18 0.95-0.55 1.26-0.38 0.3-0.9 0.45-1.56 0.45h-2.15v-2.5h-1.41l0.93 2.5h-1.030l-0.59-1.67h-2.28l-0.58 1.67h-1.040l0.93-2.5h-0.93v-1h1.31l0.93-2.49h1.060l0.92 2.49h1.78v-2.5h1.77c1 0 1.41 0.17 1.77 0.41 0.37 0.24 0.55 0.62 0.55 1.13 0 0.35-0.090 0.64-0.27 0.87l-0.080 0.090h1.29c0.050-0.4 0.15-0.77 0.31-1.1 0.23-0.46 0.55-0.82 0.98-1.060 0.43-0.25 0.93-0.37 1.51-0.37 0.61 0 1.17 0.12 1.69 0.38l-0.35 0.81c-0.2-0.1-0.42-0.18-0.64-0.25s-0.46-0.11-0.71-0.11c-0.55 0-0.99 0.2-1.31 0.59-0.23 0.29-0.38 0.66-0.44 1.11h2.93v1h-2.95c0.060 0.5 0.2 0.9 0.44 1.19 0.3 0.37 0.75 0.56 1.33 0.56zM4.44 8.96l-0.18 0.54h1.040l-0.22-0.61c-0.040-0.11-0.090-0.28-0.17-0.51-0.070-0.24-0.12-0.41-0.14-0.51-0.080 0.33-0.18 0.69-0.33 1.090zM8.97 7.87v1.63h1.19c0.28-0.020 0.49-0.090 0.64-0.18 0.19-0.13 0.28-0.35 0.28-0.66 0-0.28-0.1-0.48-0.3-0.61-0.2-0.12-0.53-0.18-0.97-0.18h-0.84zM5.64 10.51v-0.010h-1.73v0.010h1.73zM10.92 10.52l-0.030-0.020h-1.92v1.68h1.040c0.4 0 0.71-0.080 0.92-0.23 0.21-0.16 0.31-0.4 0.31-0.74 0-0.31-0.11-0.54-0.32-0.69z"></path>
</svg>
