<?xml version="1.0" encoding="utf-8"?>
<!-- Generated by IcoMoon.io -->
<!DOCTYPE svg PUBLIC "-//W3C//DTD SVG 1.1//EN" "http://www.w3.org/Graphics/SVG/1.1/DTD/svg11.dtd">
<svg version="1.1" xmlns="http://www.w3.org/2000/svg" xmlns:xlink="http://www.w3.org/1999/xlink" width="20" height="20" viewBox="0 0 20 20">
<path d="M17.74 2.26c1.68 1.69 1.68 4.41 0 6.1l-1.53 1.52c-0.32 0.33-0.69 0.58-1.080 0.77l-2.13-0.65 1.69-1.64 0.76-0.77 0.76-0.76c0.84-0.84 0.84-2.2 0-3.040-0.84-0.85-2.2-0.85-3.040 0l-0.77 0.76-0.76 0.76-1.64 1.69-0.65-2.14c0.19-0.38 0.44-0.75 0.77-1.070l1.52-1.53c1.69-1.68 4.42-1.68 6.1 0zM2 4l8 6-6-8zM6 2l4 8-2-8h-2zM2 6l8 4-8-2v-2zM9.36 13.69l0.64-0.69 0.74 2.35-1.38 1.39c-1.69 1.68-4.41 1.68-6.1 0-1.68-1.68-1.68-4.42 0-6.1l1.39-1.38 2.35 0.74-0.69 0.64-1.52 1.53c-0.85 0.84-0.85 2.2 0 3.040 0.84 0.85 2.2 0.85 3.040 0zM18 16l-8-6 6 8zM14 18l-4-8 2 8h2zM18 14l-8-4 8 2v2z"></path>
</svg>
