<?xml version="1.0" encoding="utf-8"?>
<!-- Generated by IcoMoon.io -->
<!DOCTYPE svg PUBLIC "-//W3C//DTD SVG 1.1//EN" "http://www.w3.org/Graphics/SVG/1.1/DTD/svg11.dtd">
<svg version="1.1" xmlns="http://www.w3.org/2000/svg" xmlns:xlink="http://www.w3.org/1999/xlink" width="20" height="20" viewBox="0 0 20 20">
<path d="M19 2v6h-18v-6h18zM18 7v-4h-16v4h16zM5 4v2h-2v-2h2zM8 4v2h-2v-2h2zM11 4v2h-2v-2h2zM14 4v2h-2v-2h2zM17 4v2h-2v-2h2zM19 9v9h-18v-9h18zM18 17v-7h-16v7h16zM5 11v2h-2v-2h2zM8 11v2h-2v-2h2zM11 11v2h-2v-2h2zM17 11v2h-5v-2h5zM11 14v2h-8v-2h8zM14 14v2h-2v-2h2zM17 14v2h-2v-2h2z"></path>
</svg>
