<?xml version="1.0" encoding="utf-8"?>
<!-- Generated by IcoMoon.io -->
<!DOCTYPE svg PUBLIC "-//W3C//DTD SVG 1.1//EN" "http://www.w3.org/Graphics/SVG/1.1/DTD/svg11.dtd">
<svg version="1.1" xmlns="http://www.w3.org/2000/svg" xmlns:xlink="http://www.w3.org/1999/xlink" width="20" height="20" viewBox="0 0 20 20">
<path d="M17 10c0-3.87-3.14-7-7-7-3.87 0-7 3.13-7 7s3.13 7 7 7c3.86 0 7-3.13 7-7zM10.7 11.48h-1.56v-0.43c0-0.38 0.080-0.7 0.24-0.98s0.46-0.57 0.88-0.89c0.41-0.29 0.68-0.53 0.81-0.71 0.14-0.18 0.2-0.39 0.2-0.62 0-0.25-0.090-0.44-0.28-0.58-0.19-0.13-0.45-0.19-0.79-0.19-0.58 0-1.25 0.19-2 0.57l-0.64-1.28c0.87-0.49 1.8-0.74 2.77-0.74 0.81 0 1.45 0.2 1.92 0.58 0.48 0.39 0.71 0.91 0.71 1.55 0 0.43-0.090 0.8-0.29 1.11-0.19 0.32-0.57 0.67-1.11 1.060-0.38 0.28-0.61 0.49-0.71 0.63-0.1 0.15-0.15 0.34-0.15 0.57v0.35zM9.23 14.22c-0.18-0.17-0.27-0.42-0.27-0.73 0-0.33 0.080-0.58 0.26-0.75s0.43-0.25 0.77-0.25c0.32 0 0.57 0.090 0.75 0.26s0.27 0.42 0.27 0.74c0 0.3-0.090 0.55-0.27 0.72-0.18 0.18-0.43 0.27-0.75 0.27-0.33 0-0.58-0.090-0.76-0.26z"></path>
</svg>
