<?xml version="1.0" encoding="utf-8"?>
<!-- Generated by IcoMoon.io -->
<!DOCTYPE svg PUBLIC "-//W3C//DTD SVG 1.1//EN" "http://www.w3.org/Graphics/SVG/1.1/DTD/svg11.dtd">
<svg version="1.1" xmlns="http://www.w3.org/2000/svg" xmlns:xlink="http://www.w3.org/1999/xlink" width="20" height="20" viewBox="0 0 20 20">
<path d="M16 2h-3v1h-6v-1h-3v15h3v-1h6v1h3v-15zM6 3v1h-1v-1h1zM15 3v1h-1v-1h1zM13 4v5h-6v-5h6zM6 5v1h-1v-1h1zM15 5v1h-1v-1h1zM6 7v1h-1v-1h1zM15 7v1h-1v-1h1zM6 9v1h-1v-1h1zM15 9v1h-1v-1h1zM13 10v5h-6v-5h6zM6 11v1h-1v-1h1zM15 11v1h-1v-1h1zM6 13v1h-1v-1h1zM15 13v1h-1v-1h1zM6 15v1h-1v-1h1zM15 15v1h-1v-1h1z"></path>
</svg>
