<?xml version="1.0" encoding="utf-8"?>
<!-- Generated by IcoMoon.io -->
<!DOCTYPE svg PUBLIC "-//W3C//DTD SVG 1.1//EN" "http://www.w3.org/Graphics/SVG/1.1/DTD/svg11.dtd">
<svg version="1.1" xmlns="http://www.w3.org/2000/svg" xmlns:xlink="http://www.w3.org/1999/xlink" width="20" height="20" viewBox="0 0 20 20">
<path d="M9.49 13.22c0-0.74-0.2-1.38-0.61-1.9-0.62-0.78-1.83-0.88-2.53-0.72-0.29-1.65 1.11-3.75 2.92-4.65l-1.39-1.95c-2.73 1.3-5.42 4.28-4.96 8.050 0.29 2.38 1.67 3.95 3.62 3.95 0.85 0 1.56-0.25 2.12-0.75s0.83-1.18 0.83-2.030zM17.54 13.22c0-0.74-0.2-1.38-0.61-1.9-0.63-0.78-1.83-0.88-2.53-0.72-0.29-1.65 1.11-3.75 2.92-4.65l-1.39-1.95c-2.73 1.3-5.41 4.28-4.95 8.050 0.29 2.38 1.66 3.95 3.61 3.95 0.85 0 1.56-0.25 2.12-0.75s0.83-1.18 0.83-2.030z"></path>
</svg>
