<?xml version="1.0" encoding="utf-8"?>
<!-- Generated by IcoMoon.io -->
<!DOCTYPE svg PUBLIC "-//W3C//DTD SVG 1.1//EN" "http://www.w3.org/Graphics/SVG/1.1/DTD/svg11.dtd">
<svg version="1.1" xmlns="http://www.w3.org/2000/svg" xmlns:xlink="http://www.w3.org/1999/xlink" width="20" height="20" viewBox="0 0 20 20">
<path d="M3.87 4h13.25c1.25 0 1.88 0.59 1.88 1.79v8.42c0 1.19-0.63 1.79-1.88 1.79h-13.25c-1.25 0-1.88-0.6-1.88-1.79v-8.42c0-1.2 0.63-1.79 1.88-1.79zM10.49 12.6l6.74-5.53c0.24-0.2 0.43-0.66 0.13-1.070-0.29-0.41-0.82-0.42-1.17-0.17l-5.7 3.86-5.69-3.86c-0.35-0.25-0.88-0.24-1.17 0.17-0.3 0.41-0.11 0.87 0.13 1.070z"></path>
</svg>
