<?xml version="1.0" encoding="utf-8"?>
<!-- Generated by IcoMoon.io -->
<!DOCTYPE svg PUBLIC "-//W3C//DTD SVG 1.1//EN" "http://www.w3.org/Graphics/SVG/1.1/DTD/svg11.dtd">
<svg version="1.1" xmlns="http://www.w3.org/2000/svg" xmlns:xlink="http://www.w3.org/1999/xlink" width="20" height="20" viewBox="0 0 20 20">
<path d="M19 14.5v-9c0-0.83-0.67-1.5-1.5-1.5h-14.010c-0.83 0-1.5 0.67-1.5 1.5v9c0 0.83 0.67 1.5 1.5 1.5h14.010c0.83 0 1.5-0.67 1.5-1.5zM17.69 5.39c0.33 0.33 0.15 0.67-0.030 0.84l-4.060 3.72 3.9 4.060c0.12 0.14 0.2 0.36 0.060 0.51-0.13 0.16-0.43 0.15-0.56 0.050l-4.37-3.73-2.14 1.95-2.13-1.95-4.37 3.73c-0.13 0.1-0.43 0.11-0.56-0.050-0.14-0.15-0.060-0.37 0.060-0.51l3.9-4.060-4.060-3.72c-0.18-0.17-0.36-0.51-0.030-0.84s0.67-0.17 0.95 0.070l6.24 5.040 6.25-5.040c0.28-0.24 0.62-0.4 0.95-0.070z"></path>
</svg>
