<?xml version="1.0" encoding="utf-8"?>
<!-- Generator: Adobe Illustrator 23.0.1, SVG Export Plug-In . SVG Version: 6.00 Build 0)  -->
<svg version="1.1" id="Layer_1" xmlns="http://www.w3.org/2000/svg" xmlns:xlink="http://www.w3.org/1999/xlink" x="0px" y="0px"
	 viewBox="0 0 20 20" style="enable-background:new 0 0 20 20;" xml:space="preserve">
<path d="M16,1.1L4,5.9c-1.1,0.4-2,1.8-2,3v8.7c0,1.2,0.9,1.8,2,1.4l12-4.8c1.1-0.4,2-1.8,2-3V2.5C18,1.3,17.1,0.7,16,1.1z M16.6,3.7
	l-6,9.3L3.9,8.5C3.8,8.4,3.5,8.1,3.7,7.8c0.2-0.4,0.7-0.2,0.7-0.2l6.3,2.3c0,0,4.8-6.3,5.1-6.7c0.1-0.2,0.4-0.3,0.7-0.1
	C16.8,3.3,16.7,3.6,16.6,3.7z"/>
</svg>
