<?xml version="1.0" encoding="utf-8"?>
<!-- Generated by IcoMoon.io -->
<!DOCTYPE svg PUBLIC "-//W3C//DTD SVG 1.1//EN" "http://www.w3.org/Graphics/SVG/1.1/DTD/svg11.dtd">
<svg version="1.1" xmlns="http://www.w3.org/2000/svg" xmlns:xlink="http://www.w3.org/1999/xlink" width="20" height="20" viewBox="0 0 20 20">
<path d="M2.89 2h14.23c0.49 0 0.88 0.39 0.88 0.88v14.24c0 0.48-0.39 0.88-0.88 0.88h-4.080v-6.2h2.080l0.31-2.41h-2.39v-1.54c0-0.7 0.2-1.18 1.2-1.18h1.28v-2.16c-0.22-0.030-0.98-0.090-1.86-0.090-1.85 0-3.11 1.12-3.11 3.19v1.78h-2.090v2.41h2.090v6.2h-7.66c-0.49 0-0.89-0.4-0.89-0.88v-14.24c0-0.49 0.4-0.88 0.89-0.88z"></path>
</svg>
