<?xml version="1.0" encoding="utf-8"?>
<!-- Generated by IcoMoon.io -->
<!DOCTYPE svg PUBLIC "-//W3C//DTD SVG 1.1//EN" "http://www.w3.org/Graphics/SVG/1.1/DTD/svg11.dtd">
<svg version="1.1" xmlns="http://www.w3.org/2000/svg" xmlns:xlink="http://www.w3.org/1999/xlink" width="20" height="20" viewBox="0 0 20 20">
<path d="M2 2h16c0.55 0 1 0.45 1 1v14c0 0.55-0.45 1-1 1h-16c-0.55 0-1-0.45-1-1v-14c0-0.55 0.45-1 1-1zM17 16v-9h-14v9h14zM4 8v1h3v-1h-3zM8 8v3h8v-3h-8zM4 12v1h3v-1h-3zM8 12v3h8v-3h-8z"></path>
</svg>
