<?xml version="1.0" encoding="utf-8"?>
<!-- Generated by IcoMoon.io -->
<!DOCTYPE svg PUBLIC "-//W3C//DTD SVG 1.1//EN" "http://www.w3.org/Graphics/SVG/1.1/DTD/svg11.dtd">
<svg version="1.1" xmlns="http://www.w3.org/2000/svg" xmlns:xlink="http://www.w3.org/1999/xlink" width="20" height="20" viewBox="0 0 20 20">
<path d="M2.25 1h15.5c0.69 0 1.25 0.56 1.25 1.25v15.5c0 0.69-0.56 1.25-1.25 1.25h-15.5c-0.69 0-1.25-0.56-1.25-1.25v-15.5c0-0.69 0.56-1.25 1.25-1.25zM17 17v-14h-14v14h14zM10 6c0-1.1-0.9-2-2-2s-2 0.9-2 2 0.9 2 2 2 2-0.9 2-2zM13 11c0 0 0-6 3-6v10c0 0.55-0.45 1-1 1h-10c-0.55 0-1-0.45-1-1v-7c2 0 3 4 3 4s1-3 3-3 3 2 3 2z"></path>
</svg>
