<?xml version="1.0" encoding="utf-8"?>
<!-- Generated by IcoMoon.io -->
<!DOCTYPE svg PUBLIC "-//W3C//DTD SVG 1.1//EN" "http://www.w3.org/Graphics/SVG/1.1/DTD/svg11.dtd">
<svg version="1.1" xmlns="http://www.w3.org/2000/svg" xmlns:xlink="http://www.w3.org/1999/xlink" width="20" height="20" viewBox="0 0 20 20">
<path d="M6.99 3.080l11.020-2c0.55-0.080 0.99 0.45 0.99 1v12.42c0 1.94-1.57 3.5-3.5 3.5s-3.5-1.56-3.5-3.5c0-1.93 1.57-3.5 3.5-3.5 0.54 0 1.040 0.14 1.5 0.35v-6.27l-9 2v8.92c-0.24 1.7-1.74 3-3.5 3-1.93 0-3.5-1.56-3.5-3.5 0-1.93 1.57-3.5 3.5-3.5 0.54 0 1.040 0.14 1.5 0.35v-8.27c0-0.55 0.44-0.91 0.99-1z"></path>
</svg>
