<?xml version="1.0" encoding="utf-8"?>
<!-- Generated by IcoMoon.io -->
<!DOCTYPE svg PUBLIC "-//W3C//DTD SVG 1.1//EN" "http://www.w3.org/Graphics/SVG/1.1/DTD/svg11.dtd">
<svg version="1.1" xmlns="http://www.w3.org/2000/svg" xmlns:xlink="http://www.w3.org/1999/xlink" width="20" height="20" viewBox="0 0 20 20">
<path d="M11 6h-0.82c-1.11 0-2.18 1.2-2.18 2.16v1.84l-3 3v-3h-2c-1.1 0-2-0.9-2-2v-5c0-1.1 0.9-2 2-2h6c1.1 0 2 0.9 2 2v3zM11 7h6c1.1 0 2 0.9 2 2v5c0 1.1-0.9 2-2 2h-2v3l-3-3h-1c-1.1 0-2-0.9-2-2v-5c0-1.1 0.9-2 2-2z"></path>
</svg>
