<?xml version="1.0" encoding="utf-8"?>
<!-- Generated by IcoMoon.io -->
<!DOCTYPE svg PUBLIC "-//W3C//DTD SVG 1.1//EN" "http://www.w3.org/Graphics/SVG/1.1/DTD/svg11.dtd">
<svg version="1.1" xmlns="http://www.w3.org/2000/svg" xmlns:xlink="http://www.w3.org/1999/xlink" width="20" height="20" viewBox="0 0 20 20">
<path d="M8.54 12.74c0-0.87-0.24-1.61-0.72-2.22-0.73-0.92-2.14-1.030-2.96-0.85-0.34-1.93 1.3-4.39 3.42-5.45l-1.63-2.28c-3.2 1.52-6.34 5.020-5.8 9.43 0.34 2.79 1.95 4.63 4.23 4.63 1 0 1.83-0.29 2.48-0.88 0.66-0.59 0.98-1.38 0.98-2.38zM17.97 12.74c0-0.87-0.24-1.61-0.72-2.22-0.73-0.92-2.14-1.030-2.96-0.85-0.34-1.93 1.3-4.39 3.42-5.45l-1.63-2.28c-3.2 1.52-6.34 5.020-5.8 9.43 0.34 2.79 1.95 4.63 4.23 4.63 1 0 1.83-0.29 2.48-0.88 0.66-0.59 0.98-1.38 0.98-2.38z"></path>
</svg>
