<?xml version="1.0" encoding="utf-8"?>
<!-- Generated by IcoMoon.io -->
<!DOCTYPE svg PUBLIC "-//W3C//DTD SVG 1.1//EN" "http://www.w3.org/Graphics/SVG/1.1/DTD/svg11.dtd">
<svg version="1.1" xmlns="http://www.w3.org/2000/svg" xmlns:xlink="http://www.w3.org/1999/xlink" width="20" height="20" viewBox="0 0 20 20">
<path d="M2 1h16c0.55 0 1 0.45 1 1v16l-18-0.020v-15.98c0-0.55 0.45-1 1-1zM6 2l-2 3h1l2-3h-1zM10 2h-1l-2 3h1zM13 2h-1l-2 3h1zM16 2h-1l-2 3h1zM17 16v-10h-14v10h14zM8 7l6 4-6 4v-8z"></path>
</svg>
