<?xml version="1.0" encoding="utf-8"?>
<!-- Generated by IcoMoon.io -->
<!DOCTYPE svg PUBLIC "-//W3C//DTD SVG 1.1//EN" "http://www.w3.org/Graphics/SVG/1.1/DTD/svg11.dtd">
<svg version="1.1" xmlns="http://www.w3.org/2000/svg" xmlns:xlink="http://www.w3.org/1999/xlink" width="20" height="20" viewBox="0 0 20 20">
<path d="M8.030 4.46c-0.29 1.28 0.55 3.46 1.97 3.46 1.41 0 2.25-2.18 1.96-3.46-0.22-0.98-1.080-1.63-1.96-1.63-0.89 0-1.74 0.65-1.97 1.63zM3.9 5.36c-0.25 1.080 0.47 2.93 1.67 2.93s1.92-1.85 1.67-2.93c-0.19-0.83-0.92-1.39-1.67-1.39s-1.48 0.56-1.67 1.39zM12.76 5.36c-0.25 1.080 0.47 2.93 1.66 2.93 1.2 0 1.92-1.85 1.67-2.93-0.19-0.83-0.92-1.39-1.67-1.39-0.74 0-1.47 0.56-1.66 1.39zM12.17 16.79l1.25-4.3c0.78-2.49-0.71-4.020-3.42-4.020-2.72 0-4.21 1.53-3.44 4.020l1.26 4.3c0.23 0.72 1.18 1.21 2.18 1.21 0.98 0 1.94-0.49 2.17-1.21zM6.070 9.16c-0.49 0.67-0.96 1.83-0.42 3.59l1.12 3.79c-0.34 0.2-0.77 0.31-1.2 0.31-0.85 0-1.65-0.41-1.85-1.030l-1.070-3.65c-0.65-2.11 0.61-3.4 2.92-3.4 0.27 0 0.54 0.020 0.79 0.060-0.1 0.1-0.2 0.22-0.29 0.33zM14.42 8.77c2.31 0 3.58 1.29 2.92 3.4l-1.070 3.65c-0.2 0.62-1 1.030-1.85 1.030-0.43 0-0.86-0.11-1.2-0.31l1.11-3.77c0.55-1.78 0.080-2.94-0.42-3.61-0.080-0.11-0.18-0.23-0.28-0.33 0.25-0.040 0.51-0.060 0.79-0.060z"></path>
</svg>
