<svg xmlns="http://www.w3.org/2000/svg" width="20" height="20" viewBox="0 0 20 20">
  <title>hidden</title>
  <g>
    <path d="M17.29,3.307a1.1,1.1,0,0,0-1.555,0L13.34,5.7A10.027,10.027,0,0,0,10,5.12,10.489,10.489,0,0,0,.964,10.564a10.481,10.481,0,0,0,.759,1.187,10.347,10.347,0,0,0,2.888,2.68L2.9,16.144A1.1,1.1,0,1,0,4.454,17.7L17.29,4.862A1.1,1.1,0,0,0,17.29,3.307ZM10.081,8.961a1.271,1.271,0,0,1,1.792-1.792ZM2.34,10.686A9.175,9.175,0,0,1,7.014,7.2a4.113,4.113,0,0,0-.292,5.124l-1.3,1.3A9.286,9.286,0,0,1,2.34,10.686Z"/>
    <path d="M18.332,9.452a10.521,10.521,0,0,0-1.791-1.925l-.992.993a9.081,9.081,0,0,1,2.111,2.166A9.14,9.14,0,0,1,10,14.874c-.256,0-.505-.028-.756-.049l-1.011,1.01A10.089,10.089,0,0,0,10,16.008a10.226,10.226,0,0,0,8.277-4.257,10.481,10.481,0,0,0,.759-1.187A10.227,10.227,0,0,0,18.332,9.452Z"/>
    <path d="M14.023,10.046l-4,4A4.063,4.063,0,0,0,14.023,10.046Z"/>
  </g>
</svg>
