<?xml version="1.0" encoding="utf-8"?>
<!-- Generated by IcoMoon.io -->
<!DOCTYPE svg PUBLIC "-//W3C//DTD SVG 1.1//EN" "http://www.w3.org/Graphics/SVG/1.1/DTD/svg11.dtd">
<svg version="1.1" xmlns="http://www.w3.org/2000/svg" xmlns:xlink="http://www.w3.org/1999/xlink" width="20" height="20" viewBox="0 0 20 20">
<path d="M18 18h-16v-16h16v16zM8.050 7.53c0.13-0.070 0.24-0.15 0.33-0.24 0.090-0.1 0.17-0.21 0.24-0.34 0.070-0.14 0.13-0.26 0.17-0.37s0.070-0.22 0.1-0.34l0.060-0.24c0-0.040 0.010-0.070 0.010-0.090 0.050-0.32 0.030-0.61-0.040-0.9-0.080-0.28-0.23-0.52-0.46-0.72-0.23-0.19-0.51-0.29-0.86-0.29-0.2 0-0.39 0.040-0.56 0.11-0.17 0.080-0.31 0.18-0.41 0.3-0.11 0.13-0.2 0.27-0.27 0.44-0.070 0.16-0.11 0.33-0.12 0.51s0 0.36 0.010 0.55l0.020 0.090c0.010 0.060 0.030 0.15 0.060 0.25s0.060 0.21 0.1 0.33 0.1 0.25 0.17 0.37c0.080 0.12 0.16 0.23 0.25 0.33s0.2 0.19 0.34 0.25c0.13 0.060 0.28 0.090 0.43 0.090s0.3-0.030 0.43-0.090zM16 5v-1h-5v1h5zM16 7v-1h-5v1h5zM7.62 8.83l-1.38-0.88c-0.41 0-0.79 0.11-1.14 0.32-0.35 0.22-0.62 0.5-0.81 0.85-0.19 0.34-0.29 0.7-0.29 1.070v1.25l0.2 0.050c0.13 0.040 0.31 0.090 0.55 0.14 0.24 0.060 0.51 0.12 0.8 0.17 0.29 0.060 0.62 0.1 1 0.14 0.37 0.040 0.73 0.060 1.070 0.060s0.69-0.020 1.070-0.060 0.7-0.090 0.98-0.14c0.27-0.050 0.54-0.1 0.82-0.17 0.27-0.060 0.45-0.11 0.54-0.13 0.090-0.030 0.16-0.050 0.21-0.060v-1.25c0-0.36-0.1-0.72-0.31-1.070s-0.49-0.64-0.84-0.86-0.72-0.33-1.11-0.33zM16 9v-1h-3v1h3zM16 11v-1h-3v1h3zM16 14v-1h-12v1h12zM16 16v-1h-12v1h12z"></path>
</svg>
