<?xml version="1.0" encoding="utf-8"?>
<!-- Generated by IcoMoon.io -->
<!DOCTYPE svg PUBLIC "-//W3C//DTD SVG 1.1//EN" "http://www.w3.org/Graphics/SVG/1.1/DTD/svg11.dtd">
<svg version="1.1" xmlns="http://www.w3.org/2000/svg" xmlns:xlink="http://www.w3.org/1999/xlink" width="20" height="20" viewBox="0 0 20 20">
<path d="M5 3h14v11h-2v2h-2v2h-14v-11h2v-2h2v-2zM18 13v-9h-12v9h12zM15 9c-1.1 0-2-0.9-2-2s0.9-2 2-2 2 0.9 2 2-0.9 2-2 2zM16 15v-1h-11v-8h-1v9h12zM7 6l10 6h-10v-6zM14 17v-1h-11v-8h-1v9h12z"></path>
</svg>
