<?xml version="1.0" encoding="utf-8"?>
<!-- Generated by IcoMoon.io -->
<!DOCTYPE svg PUBLIC "-//W3C//DTD SVG 1.1//EN" "http://www.w3.org/Graphics/SVG/1.1/DTD/svg11.dtd">
<svg version="1.1" xmlns="http://www.w3.org/2000/svg" xmlns:xlink="http://www.w3.org/1999/xlink" width="20" height="20" viewBox="0 0 20 20">
<path d="M14 5.87c0-2.2-1.79-4-4-4s-4 1.8-4 4c0 2.21 1.79 4 4 4s4-1.79 4-4zM3.24 10.66c-1.92 1.1-2.57 3.55-1.47 5.46 1.11 1.92 3.55 2.57 5.47 1.47 1.91-1.11 2.57-3.55 1.46-5.47-1.1-1.91-3.55-2.56-5.46-1.46zM12.76 17.59c1.92 1.1 4.36 0.45 5.47-1.46 1.1-1.92 0.45-4.36-1.47-5.47-1.91-1.1-4.36-0.45-5.46 1.46-1.11 1.92-0.45 4.36 1.46 5.47z"></path>
</svg>
