<?xml version="1.0" encoding="utf-8"?>
<!-- Generated by IcoMoon.io -->
<!DOCTYPE svg PUBLIC "-//W3C//DTD SVG 1.1//EN" "http://www.w3.org/Graphics/SVG/1.1/DTD/svg11.dtd">
<svg version="1.1" xmlns="http://www.w3.org/2000/svg" xmlns:xlink="http://www.w3.org/1999/xlink" width="20" height="20" viewBox="0 0 20 20">
<path d="M4 15v-3h-2v-10h12v3h2v3h2v10h-12v-3h-2zM11 3c-1.1 0-2 0.9-2 2h4c0-1.1-0.89-2-2-2zM4 11v-5h-1v5h1zM11 8h4c0-1.1-0.89-2-2-2-1.1 0-2 0.9-2 2zM6 14v-5h-1v5h1zM15 13c1.1 0 2-0.89 2-2 0-1.1-0.9-2-2-2s-2 0.9-2 2c0 1.11 0.9 2 2 2zM17 17v-2c-5 0-5-3-10-3v5h10z"></path>
</svg>
