<?xml version="1.0" encoding="utf-8"?>
<!-- Generated by IcoMoon.io -->
<!DOCTYPE svg PUBLIC "-//W3C//DTD SVG 1.1//EN" "http://www.w3.org/Graphics/SVG/1.1/DTD/svg11.dtd">
<svg version="1.1" xmlns="http://www.w3.org/2000/svg" xmlns:xlink="http://www.w3.org/1999/xlink" width="20" height="20" viewBox="0 0 20 20">
<path d="M12.7,10c0-1.5-1.2-2.7-2.7-2.7S7.3,8.5,7.3,10s1.2,2.7,2.7,2.7l0,0C11.5,12.7,12.7,11.5,12.7,10z M14.1,10
	c0,2.3-1.8,4.1-4.1,4.1S5.9,12.3,5.9,10S7.7,5.9,10,5.9C12.3,5.9,14.1,7.7,14.1,10C14.1,10,14.1,10,14.1,10z M15.2,5.7
	c0,0.6-0.4,1-1,1s-1-0.4-1-1s0.4-1,1-1C14.8,4.7,15.2,5.2,15.2,5.7z M10,3.4c-1.2,0-3.7-0.1-4.7,0.3C4.6,4,4,4.6,3.8,5.3
	c-0.4,1-0.3,3.5-0.3,4.7s-0.1,3.7,0.3,4.7C4,15.4,4.6,16,5.3,16.2c1,0.4,3.6,0.3,4.7,0.3s3.7,0.1,4.7-0.3c0.7-0.3,1.2-0.8,1.5-1.5
	c0.4-1.1,0.3-3.6,0.3-4.7s0.1-3.7-0.3-4.7C16,4.6,15.4,4,14.7,3.8C13.7,3.3,11.2,3.4,10,3.4z M18,10c0,1.1,0,2.2,0,3.3
	c0,1.2-0.4,2.4-1.3,3.4c-0.9,0.9-2.1,1.3-3.4,1.3c-1.1,0-2.2,0-3.3,0s-2.2,0-3.3,0c-1.2,0-2.4-0.4-3.4-1.3C2.5,15.8,2,14.6,2,13.3
	c0-1.1,0-2.2,0-3.3s0-2.2,0-3.3c0-1.3,0.5-2.5,1.3-3.4C4.3,2.5,5.5,2,6.7,2C7.8,2,8.9,2,10,2s2.2,0,3.3,0c1.2,0,2.4,0.4,3.4,1.3
	C17.5,4.2,18,5.4,18,6.7C18,7.8,18,8.9,18,10z"></path>
</svg>
