<?xml version="1.0" encoding="utf-8"?>
<!-- Generated by IcoMoon.io -->
<!DOCTYPE svg PUBLIC "-//W3C//DTD SVG 1.1//EN" "http://www.w3.org/Graphics/SVG/1.1/DTD/svg11.dtd">
<svg version="1.1" xmlns="http://www.w3.org/2000/svg" xmlns:xlink="http://www.w3.org/1999/xlink" width="20" height="20" viewBox="0 0 20 20">
<path d="M3 3h14c0.6 0 1 0.4 1 1v10c0 0.6-0.4 1-1 1h-14c-0.6 0-1-0.4-1-1v-10c0-0.6 0.4-1 1-1zM16 5h-12v8h12v-8zM13 6h-8v4zM19 17v-1h-18v1c0 0.6 0.5 1 1.1 1h15.8c0.6 0 1.1-0.4 1.1-1z"></path>
</svg>
