<?xml version="1.0" encoding="utf-8"?>
<!-- Generated by IcoMoon.io -->
<!DOCTYPE svg PUBLIC "-//W3C//DTD SVG 1.1//EN" "http://www.w3.org/Graphics/SVG/1.1/DTD/svg11.dtd">
<svg version="1.1" xmlns="http://www.w3.org/2000/svg" xmlns:xlink="http://www.w3.org/1999/xlink" width="20" height="20" viewBox="0 0 20 20">
<path d="M13 13.14l1.17-5.94c0.79-0.43 1.33-1.25 1.33-2.2 0-1.38-1.12-2.5-2.5-2.5s-2.5 1.12-2.5 2.5c0 0.95 0.54 1.77 1.33 2.2zM13 3.5c0.83 0 1.5 0.67 1.5 1.5s-0.67 1.5-1.5 1.5-1.5-0.67-1.5-1.5 0.67-1.5 1.5-1.5zM14.72 8.3l3.28-1.33v9l-4.88 2.030-6.12-2.030-5 2v-9l5-2 4.27 1.41 1.73 7.3z"></path>
</svg>
