<?xml version="1.0" encoding="utf-8"?>
<!-- Generator: Adobe Illustrator 23.0.1, SVG Export Plug-In . SVG Version: 6.00 Build 0)  -->
<svg version="1.1" id="Layer_1" xmlns="http://www.w3.org/2000/svg" xmlns:xlink="http://www.w3.org/1999/xlink" x="0px" y="0px"
	 viewBox="0 0 20 20" style="enable-background:new 0 0 20 20;" xml:space="preserve">
<path d="M15,9h-1V6c0-2.2-1.8-4-4-4S6,3.8,6,6v3H5c-0.5,0-1,0.5-1,1v7c0,0.5,0.5,1,1,1h10c0.5,0,1-0.5,1-1v-7C16,9.5,15.5,9,15,9z
	 M11,16H9l0.4-2.2c-0.5-0.2-0.9-0.8-0.9-1.3c0-0.8,0.7-1.5,1.5-1.5s1.5,0.7,1.5,1.5c0,0.6-0.3,1.1-0.9,1.3L11,16z M12,9H8V6
	c0-1.1,0.9-2,2-2s2,0.9,2,2V9z"/>
</svg>
