<?xml version="1.0" encoding="utf-8"?>
<!-- Generated by IcoMoon.io -->
<!DOCTYPE svg PUBLIC "-//W3C//DTD SVG 1.1//EN" "http://www.w3.org/Graphics/SVG/1.1/DTD/svg11.dtd">
<svg version="1.1" xmlns="http://www.w3.org/2000/svg" xmlns:xlink="http://www.w3.org/1999/xlink" width="20" height="20" viewBox="0 0 20 20">
<path d="M12 2l4 4v12h-12v-16h8zM12 6h3l-3-3v3zM11 14v-3c0-0.27-0.1-0.51-0.29-0.71-0.2-0.19-0.44-0.29-0.71-0.29h-3c-0.27 0-0.51 0.1-0.71 0.29-0.19 0.2-0.29 0.44-0.29 0.71v3c0 0.27 0.1 0.51 0.29 0.71 0.2 0.19 0.44 0.29 0.71 0.29h3c0.27 0 0.51-0.1 0.71-0.29 0.19-0.2 0.29-0.44 0.29-0.71zM14 15v-5l-2 2v1z"></path>
</svg>
