<?xml version="1.0" encoding="utf-8"?>
<!-- Generated by IcoMoon.io -->
<!DOCTYPE svg PUBLIC "-//W3C//DTD SVG 1.1//EN" "http://www.w3.org/Graphics/SVG/1.1/DTD/svg11.dtd">
<svg version="1.1" xmlns="http://www.w3.org/2000/svg" xmlns:xlink="http://www.w3.org/1999/xlink" width="20" height="20" viewBox="0 0 20 20">
<path d="M12 2l4 4v12h-12v-16h8zM11 6v-3h-6v3h6zM8 8v-1h-3v1h3zM11 8v-1h-2v1h2zM15 8v-1h-3v1h3zM8 10v-1h-3v1h3zM11 10v-1h-2v1h2zM15 10v-1h-3v1h3zM8 12v-1h-3v1h3zM11 12v-1h-2v1h2zM15 12v-1h-3v1h3zM8 14v-1h-3v1h3zM11 14v-1h-2v1h2zM15 14v-1h-3v1h3zM8 16v-1h-3v1h3zM11 16v-1h-2v1h2z"></path>
</svg>
