<?xml version="1.0" encoding="utf-8"?>
<!-- Generated by IcoMoon.io -->
<!DOCTYPE svg PUBLIC "-//W3C//DTD SVG 1.1//EN" "http://www.w3.org/Graphics/SVG/1.1/DTD/svg11.dtd">
<svg version="1.1" xmlns="http://www.w3.org/2000/svg" xmlns:xlink="http://www.w3.org/1999/xlink" width="20" height="20" viewBox="0 0 20 20">
<path d="M18.15 5.94c0.46 1.62 0.38 3.22-0.020 4.48-0.42 1.28-1.26 2.18-2.3 2.48-0.16 0.060-0.26 0.060-0.4 0.060-0.060 0.020-0.12 0.020-0.18 0.020-0.060 0.020-0.14 0.020-0.22 0.020h-6.8l2.22 5.5c0.020 0.14-0.060 0.26-0.14 0.34-0.080 0.1-0.24 0.16-0.34 0.16h-3.020c-0.1 0-0.26-0.060-0.34-0.16-0.080-0.080-0.16-0.2-0.14-0.34l-1-5.5h-1.22l-0.020-0.020c-0.5 0.060-1.080-0.18-1.54-0.62s-0.88-1.080-1.060-1.88c-0.24-0.8-0.2-1.56-0.020-2.2 0.18-0.62 0.58-1.080 1.060-1.3l0.020-0.020 9-5.4c0.1-0.060 0.18-0.1 0.24-0.16 0.060-0.040 0.14-0.080 0.24-0.12 0.16-0.080 0.28-0.12 0.5-0.18 1.040-0.3 2.24 0.1 3.22 0.98s1.84 2.24 2.26 3.86zM15.57 11.92h-0.020c0.4-0.1 0.74-0.34 1.040-0.7 0.58-0.7 0.86-1.76 0.86-3.040 0-0.64-0.1-1.3-0.28-1.98-0.34-1.36-1.020-2.5-1.78-3.24s-1.68-1.1-2.46-0.88c-0.82 0.22-1.4 0.96-1.7 2-0.32 1.040-0.28 2.36 0.060 3.72 0.38 1.36 1 2.5 1.8 3.24 0.78 0.74 1.62 1.1 2.48 0.88zM13.030 4.84c0.22-0.040 0.42-0.020 0.62 0.040 0.38 0.16 0.76 0.48 1.020 1s0.42 1.2 0.42 1.78c0 0.3-0.040 0.56-0.12 0.8-0.18 0.48-0.44 0.84-0.86 0.94-0.34 0.1-0.8-0.060-1.14-0.4s-0.64-0.86-0.78-1.5c-0.18-0.62-0.12-1.24 0.020-1.72s0.48-0.84 0.82-0.94z"></path>
</svg>
