<?xml version="1.0" encoding="utf-8"?>
<!-- Generated by IcoMoon.io -->
<!DOCTYPE svg PUBLIC "-//W3C//DTD SVG 1.1//EN" "http://www.w3.org/Graphics/SVG/1.1/DTD/svg11.dtd">
<svg version="1.1" xmlns="http://www.w3.org/2000/svg" xmlns:xlink="http://www.w3.org/1999/xlink" width="20" height="20" viewBox="0 0 20 20">
<path d="M12 9v-6c0-1.1-0.89-2-2-2-1.12 0-2 0.94-2 2v6c0 1.1 0.9 2 2 2 1.13 0 2-0.94 2-2zM16 9c0 2.97-2.16 5.43-5 5.91v2.090h2c0.56 0 1 0.45 1 1s-0.44 1-1 1h-6c-0.55 0-1-0.45-1-1s0.45-1 1-1h2v-2.090c-2.83-0.48-5-2.94-5-5.91 0-0.55 0.45-1 1-1 0.56 0 1 0.45 1 1 0 2.21 1.8 4 4 4 2.21 0 4-1.79 4-4 0-0.55 0.45-1 1-1 0.56 0 1 0.45 1 1z"></path>
</svg>
