<?xml version="1.0" encoding="utf-8"?>
<!-- Generated by IcoMoon.io -->
<!DOCTYPE svg PUBLIC "-//W3C//DTD SVG 1.1//EN" "http://www.w3.org/Graphics/SVG/1.1/DTD/svg11.dtd">
<svg version="1.1" xmlns="http://www.w3.org/2000/svg" xmlns:xlink="http://www.w3.org/1999/xlink" width="20" height="20" viewBox="0 0 20 20">
<path d="M0 3h20v12h-0.75c0-1.79-1.46-3.25-3.25-3.25-1.31 0-2.42 0.79-2.94 1.91-0.25-0.1-0.52-0.16-0.81-0.16-0.98 0-1.8 0.63-2.11 1.5h-10.14v-12zM8.37 6.11c-0.060 0.15-0.1 0.31-0.11 0.47s-0.010 0.33 0.010 0.5l0.020 0.080c0.010 0.060 0.020 0.14 0.050 0.23 0.020 0.1 0.060 0.2 0.1 0.31 0.030 0.11 0.090 0.22 0.15 0.33 0.070 0.12 0.15 0.22 0.23 0.31s0.18 0.17 0.31 0.23c0.12 0.060 0.25 0.090 0.4 0.090 0.14 0 0.27-0.030 0.39-0.090s0.22-0.14 0.3-0.22c0.090-0.090 0.16-0.2 0.22-0.32 0.070-0.12 0.12-0.23 0.16-0.33s0.070-0.2 0.090-0.31c0.030-0.11 0.040-0.18 0.050-0.22s0.010-0.070 0.010-0.090c0.050-0.29 0.030-0.56-0.040-0.82s-0.21-0.48-0.41-0.66c-0.21-0.18-0.47-0.27-0.79-0.27-0.19 0-0.36 0.030-0.52 0.1-0.15 0.070-0.28 0.16-0.38 0.28-0.090 0.11-0.17 0.25-0.24 0.4zM12.85 12.15v-1.14c0-0.33-0.1-0.66-0.29-0.98s-0.45-0.59-0.77-0.79c-0.32-0.21-0.66-0.31-1.020-0.31l-1.24 0.84-1.28-0.82c-0.37 0-0.72 0.1-1.040 0.3-0.31 0.2-0.56 0.46-0.74 0.77-0.18 0.32-0.27 0.65-0.27 0.99v1.14l0.18 0.050c0.12 0.040 0.29 0.080 0.51 0.14 0.23 0.050 0.47 0.1 0.74 0.15 0.26 0.050 0.57 0.090 0.91 0.13 0.34 0.030 0.67 0.050 0.99 0.050 0.3 0 0.63-0.020 0.98-0.050 0.34-0.040 0.64-0.080 0.89-0.13 0.25-0.040 0.5-0.1 0.76-0.16l0.5-0.12c0.080-0.020 0.14-0.040 0.19-0.060zM16 12.25c1.52 0 2.75 1.23 2.75 2.75s-1.23 2.75-2.75 2.75c-0.73 0-1.38-0.3-1.87-0.77 0.23-0.35 0.37-0.78 0.37-1.23 0-0.77-0.39-1.46-0.99-1.86 0.43-0.96 1.37-1.64 2.49-1.64zM10.5 15.75c0-0.96 0.79-1.75 1.75-1.75s1.75 0.79 1.75 1.75-0.79 1.75-1.75 1.75-1.75-0.79-1.75-1.75z"></path>
</svg>
