<?xml version="1.0" encoding="utf-8"?>
<!-- Generated by IcoMoon.io -->
<!DOCTYPE svg PUBLIC "-//W3C//DTD SVG 1.1//EN" "http://www.w3.org/Graphics/SVG/1.1/DTD/svg11.dtd">
<svg version="1.1" xmlns="http://www.w3.org/2000/svg" xmlns:xlink="http://www.w3.org/1999/xlink" width="20" height="20" viewBox="0 0 20 20">
<path d="M18 13h1c0.55 0 1 0.45 1 1.010v2.98c0 0.56-0.45 1.010-1 1.010h-4c-0.55 0-1-0.45-1-1.010v-2.98c0-0.56 0.45-1.010 1-1.010h1v-2h-5v2h1c0.55 0 1 0.45 1 1.010v2.98c0 0.56-0.45 1.010-1 1.010h-4c-0.55 0-1-0.45-1-1.010v-2.98c0-0.56 0.45-1.010 1-1.010h1v-2h-5v2h1c0.55 0 1 0.45 1 1.010v2.98c0 0.56-0.45 1.010-1 1.010h-4c-0.55 0-1-0.45-1-1.010v-2.98c0-0.56 0.45-1.010 1-1.010h1v-2c0-1.1 0.9-2 2-2h5v-2h-1c-0.55 0-1-0.45-1-1.010v-2.98c0-0.56 0.45-1.010 1-1.010h4c0.55 0 1 0.45 1 1.010v2.98c0 0.56-0.45 1.010-1 1.010h-1v2h5c1.1 0 2 0.9 2 2v2z"></path>
</svg>
