<?xml version="1.0" encoding="utf-8"?>
<!-- Generated by IcoMoon.io -->
<!DOCTYPE svg PUBLIC "-//W3C//DTD SVG 1.1//EN" "http://www.w3.org/Graphics/SVG/1.1/DTD/svg11.dtd">
<svg version="1.1" xmlns="http://www.w3.org/2000/svg" xmlns:xlink="http://www.w3.org/1999/xlink" width="20" height="20" viewBox="0 0 20 20">
<path d="M8.58 2.39c0.32 0 0.59 0.050 0.81 0.14 1.25 0.55 1.69 2.24 1.7 3.97 0.59-0.82 2.15-2.29 3.41-2.29s2.94 0.73 3.53 3.55c-1.13-0.65-2.42-0.94-3.65-0.94-1.26 0-2.45 0.32-3.29 0.89 0.4-0.11 0.86-0.16 1.33-0.16 1.39 0 2.9 0.45 3.4 1.31 0.68 1.16 0.47 3.38-0.76 4.14-0.14-2.1-1.69-4.12-3.47-4.12-0.44 0-0.88 0.12-1.33 0.38-2.26 1.36-3.26 5.3-3.26 9.74h-5c0-5.53 4.21-9.65 7.68-10.79-0.56-0.090-1.17-0.15-1.82-0.15-1.76 0-3.81 0.44-5.86 1.94 0.76-2.96 2.78-4.1 4.69-4.1 1.25 0 2.45 0.5 3.2 1.29-0.66-2.24-2.49-2.86-4.080-2.86-0.8 0-1.55 0.16-2.050 0.35 0.91-1.29 3.31-2.29 4.82-2.29zM13 11.5c0-0.83-0.67-1.5-1.5-1.5s-1.5 0.67-1.5 1.5 0.67 1.5 1.5 1.5 1.5-0.67 1.5-1.5z"></path>
</svg>
