<?xml version="1.0" encoding="utf-8"?>
<!-- Generated by IcoMoon.io -->
<!DOCTYPE svg PUBLIC "-//W3C//DTD SVG 1.1//EN" "http://www.w3.org/Graphics/SVG/1.1/DTD/svg11.dtd">
<svg version="1.1" xmlns="http://www.w3.org/2000/svg" xmlns:xlink="http://www.w3.org/1999/xlink" width="20" height="20" viewBox="0 0 20 20">
<path d="M3.76 17.010h12.48c1.1-1.38 1.76-3.11 1.76-5.010 0-4.41-3.58-8-8-8s-8 3.59-8 8c0 1.9 0.66 3.63 1.76 5.010zM9 6c0-0.55 0.45-1 1-1s1 0.45 1 1c0 0.56-0.45 1-1 1s-1-0.44-1-1zM4 8c0-0.55 0.45-1 1-1s1 0.45 1 1c0 0.56-0.45 1-1 1s-1-0.44-1-1zM8.52 11.4c0.84-0.83 6.51-3.5 6.51-3.5s-2.66 5.68-3.49 6.51c-0.84 0.84-2.18 0.84-3.020 0-0.83-0.83-0.83-2.18 0-3.010zM3 13c0-0.55 0.45-1 1-1s1 0.45 1 1c0 0.56-0.45 1-1 1s-1-0.44-1-1zM9 13c0-0.55 0.45-1 1-1s1 0.45 1 1c0 0.56-0.45 1-1 1s-1-0.44-1-1zM15 13c0-0.55 0.45-1 1-1s1 0.45 1 1c0 0.56-0.45 1-1 1s-1-0.44-1-1z"></path>
</svg>
