<?xml version="1.0" encoding="utf-8"?>
<!-- Generated by IcoMoon.io -->
<!DOCTYPE svg PUBLIC "-//W3C//DTD SVG 1.1//EN" "http://www.w3.org/Graphics/SVG/1.1/DTD/svg11.dtd">
<svg version="1.1" xmlns="http://www.w3.org/2000/svg" xmlns:xlink="http://www.w3.org/1999/xlink" width="20" height="20" viewBox="0 0 20 20">
<path d="M12.060 6l-0.21-0.2c-0.52-0.54-0.43-0.79 0.080-1.3l2.72-2.75c0.81-0.82 0.96-1.21 1.73-0.48l0.21 0.2zM12.59 6.45l4.4-4.4c0.7 0.94 2.34 3.47 1.53 5.34-0.73 1.67-1.090 1.75-2 3-1.85 2.11-4.18 4.37-6 6.070-1.26 0.91-1.31 1.33-3 2-1.8 0.71-4.4-0.89-5.38-1.56l4.4-4.4 1.18 1.62c0.34 0.46 1.2-0.060 1.8-0.66 1.040-1.050 3.18-3.18 4-4.070 0.59-0.59 1.12-1.45 0.66-1.8zM1.57 16.5l-0.21-0.21c-0.68-0.74-0.29-0.9 0.52-1.7l2.74-2.72c0.51-0.49 0.75-0.6 1.27-0.11l0.2 0.21z"></path>
</svg>
