<?xml version="1.0" encoding="utf-8"?>
<!-- Generated by IcoMoon.io -->
<!DOCTYPE svg PUBLIC "-//W3C//DTD SVG 1.1//EN" "http://www.w3.org/Graphics/SVG/1.1/DTD/svg11.dtd">
<svg version="1.1" xmlns="http://www.w3.org/2000/svg" xmlns:xlink="http://www.w3.org/1999/xlink" width="20" height="20" viewBox="0 0 20 20">
<path d="M17 3v-2h-15v2h15zM17 7v-2h-15v2h15zM10 11v-2h-8v2h8zM17.45 9.040l-6 1.12c-0.16 0.020-0.19 0.030-0.29 0.13-0.11 0.090-0.16 0.22-0.16 0.37v4.59c-0.29-0.13-0.66-0.14-0.93-0.14-0.54 0-1 0.19-1.38 0.57s-0.56 0.84-0.56 1.38c0 0.53 0.18 0.99 0.56 1.37s0.84 0.57 1.38 0.57c0.49 0 0.92-0.16 1.29-0.48s0.59-0.71 0.65-1.19v-4.95l4.99-1.11v3.48c-0.29-0.13-0.56-0.19-0.83-0.19-0.54 0-1.11 0.19-1.49 0.57-0.38 0.37-0.57 0.83-0.57 1.37s0.19 0.99 0.57 1.37 0.84 0.57 1.38 0.57c0.53 0 0.99-0.19 1.37-0.57s0.57-0.83 0.57-1.37v-6.9c0-0.16-0.050-0.3-0.16-0.41-0.11-0.12-0.24-0.17-0.39-0.15zM8 15v-2h-6v2h6zM6 19v-2h-4v2h4z"></path>
</svg>
