<?xml version="1.0" encoding="utf-8"?>
<!-- Generated by IcoMoon.io -->
<!DOCTYPE svg PUBLIC "-//W3C//DTD SVG 1.1//EN" "http://www.w3.org/Graphics/SVG/1.1/DTD/svg11.dtd">
<svg version="1.1" xmlns="http://www.w3.org/2000/svg" xmlns:xlink="http://www.w3.org/1999/xlink" width="20" height="20" viewBox="0 0 20 20">
<path d="M17 3v-2h-15v2h15zM17 7v-2h-15v2h15zM6 11v-2h-4v2h4zM8 9h9c0.55 0 1 0.45 1 1v8c0 0.55-0.45 1-1 1h-9c-0.55 0-1-0.45-1-1v-8c0-0.55 0.45-1 1-1zM11 16l3.33-2-3.33-2v4zM6 15v-2h-4v2h4zM6 19v-2h-4v2h4z"></path>
</svg>
