<?xml version="1.0" encoding="utf-8"?>
<!-- Generator: Adobe Illustrator 23.0.1, SVG Export Plug-In . SVG Version: 6.00 Build 0)  -->
<svg version="1.1" id="Layer_1" xmlns="http://www.w3.org/2000/svg" xmlns:xlink="http://www.w3.org/1999/xlink" x="0px" y="0px"
	 viewBox="0 0 20 20" style="enable-background:new 0 0 20 20;" xml:space="preserve">
<path d="M13.6,5.1l-3.1,3.1l1.8,1.8l3.1-3.1c0.3-0.3,0.2-1-0.3-1.5C14.6,4.9,14,4.8,13.6,5.1z M13.9,0.3c-0.7-0.4-9.8,7.3-9.8,7.3
	s-3.5-2.1-4-1.7c-0.5,0.4,4,5,4,5S14.6,0.6,13.9,0.3z M19.4,9.6c-0.5-0.5-1.2-0.6-1.5-0.3l-3.1,3.1l1.8,1.8l3.1-3.2
	C20,10.8,19.9,10.1,19.4,9.6z M7.7,8.6C7,9.3,6.6,11.3,6.6,12.4v3.8l-1.2,1.2c-0.6,0.6-0.6,1.5,0,2.1s1.5,0.6,2.1,0l1.2-1.2h3.8
	c1.2,0,3-0.4,3.7-1.1l1.2-0.8L8.5,7.5L7.7,8.6z"/>
</svg>
