<?xml version="1.0" encoding="utf-8"?>
<!-- Generator: Adobe Illustrator 23.0.1, SVG Export Plug-In . SVG Version: 6.00 Build 0)  -->
<svg version="1.1" id="Layer_1" xmlns="http://www.w3.org/2000/svg" xmlns:xlink="http://www.w3.org/1999/xlink" x="0px" y="0px"
	 viewBox="0 0 20 20" style="enable-background:new 0 0 20 20;" xml:space="preserve">
<path d="M16,13c-1.3,0-2.4,0.8-2.8,2H9c0-0.7-0.2-1.3-0.5-1.8l7.1-7.3C15.9,5.9,16.2,6,16.5,6C17.9,6,19,4.9,19,3.5S17.9,1,16.5,1
	S14,2.1,14,3.5c0,0.3,0.1,0.7,0.2,1l-7,7.2C6.6,11.2,5.8,11,5,11V6.8C6.2,6.4,7,5.3,7,4c0-1.7-1.3-3-3-3S1,2.3,1,4
	c0,1.3,0.8,2.4,2,2.8v4.7c-1.2,0.7-2,2-2,3.4c0,2.2,1.8,4,4,4c1.5,0,2.8-0.8,3.4-2h4.7c0.4,1.1,1.5,2,2.8,2c1.6,0,3-1.3,3-3
	C19,14.3,17.6,13,16,13z"/>
</svg>
