<?xml version="1.0" encoding="utf-8"?>
<!-- Generated by IcoMoon.io -->
<!DOCTYPE svg PUBLIC "-//W3C//DTD SVG 1.1//EN" "http://www.w3.org/Graphics/SVG/1.1/DTD/svg11.dtd">
<svg version="1.1" xmlns="http://www.w3.org/2000/svg" xmlns:xlink="http://www.w3.org/1999/xlink" width="20" height="20" viewBox="0 0 20 20">
<path d="M14.92 18h3.080c0-8.68-7.18-15.75-16-15.75v3.020c7.12 0 12.92 5.71 12.92 12.73zM9.48 18h3.080c0-5.73-4.74-10.4-10.56-10.4v3.020c2 0 3.87 0.77 5.29 2.16 1.41 1.39 2.19 3.25 2.19 5.22zM4.13 17.98c1.17 0 2.13-0.93 2.13-2.090 0-1.15-0.96-2.090-2.13-2.090-1.18 0-2.13 0.94-2.13 2.090 0 1.16 0.95 2.090 2.13 2.090z"></path>
</svg>
