<?xml version="1.0" encoding="utf-8"?>
<!-- Generated by IcoMoon.io -->
<!DOCTYPE svg PUBLIC "-//W3C//DTD SVG 1.1//EN" "http://www.w3.org/Graphics/SVG/1.1/DTD/svg11.dtd">
<svg version="1.1" xmlns="http://www.w3.org/2000/svg" xmlns:xlink="http://www.w3.org/1999/xlink" width="20" height="20" viewBox="0 0 20 20">
<path d="M12.14 4.18c1.87 1.87 2.11 4.75 0.72 6.89 0.12 0.1 0.22 0.21 0.36 0.31 0.2 0.16 0.47 0.36 0.81 0.59 0.34 0.24 0.56 0.39 0.66 0.47 0.42 0.31 0.73 0.57 0.94 0.78 0.32 0.32 0.6 0.65 0.84 1 0.25 0.35 0.44 0.69 0.59 1.040 0.14 0.35 0.21 0.68 0.18 1-0.020 0.32-0.14 0.59-0.36 0.81s-0.49 0.34-0.81 0.36c-0.31 0.020-0.65-0.040-0.99-0.19-0.35-0.14-0.7-0.34-1.040-0.59-0.35-0.24-0.68-0.52-1-0.84-0.21-0.21-0.47-0.52-0.77-0.93-0.1-0.13-0.25-0.35-0.47-0.66-0.22-0.32-0.4-0.57-0.56-0.78-0.16-0.2-0.29-0.35-0.44-0.5-2.070 1.090-4.69 0.76-6.44-0.98-2.14-2.15-2.14-5.64 0-7.78 2.15-2.15 5.63-2.15 7.78 0zM10.73 10.54c1.36-1.37 1.36-3.58 0-4.95-1.37-1.37-3.59-1.37-4.95 0-1.37 1.37-1.37 3.58 0 4.95 1.36 1.37 3.58 1.37 4.95 0z"></path>
</svg>
