<?xml version="1.0" encoding="utf-8"?>
<!-- Generated by IcoMoon.io -->
<!DOCTYPE svg PUBLIC "-//W3C//DTD SVG 1.1//EN" "http://www.w3.org/Graphics/SVG/1.1/DTD/svg11.dtd">
<svg version="1.1" xmlns="http://www.w3.org/2000/svg" xmlns:xlink="http://www.w3.org/1999/xlink" width="20" height="20" viewBox="0 0 20 20">
<path d="M14.5 12c1.66 0 3 1.34 3 3s-1.34 3-3 3-3-1.34-3-3c0-0.24 0.030-0.46 0.090-0.69l-4.38-2.3c-0.55 0.61-1.33 0.99-2.21 0.99-1.66 0-3-1.34-3-3s1.34-3 3-3c0.88 0 1.66 0.39 2.21 0.99l4.38-2.3c-0.060-0.23-0.090-0.45-0.090-0.69 0-1.66 1.34-3 3-3s3 1.34 3 3-1.34 3-3 3c-0.88 0-1.66-0.39-2.21-0.99l-4.38 2.3c0.060 0.23 0.090 0.45 0.090 0.69s-0.030 0.46-0.090 0.69l4.38 2.3c0.55-0.61 1.33-0.99 2.21-0.99z"></path>
</svg>
