<?xml version="1.0" encoding="utf-8"?>
<!-- Generated by IcoMoon.io -->
<!DOCTYPE svg PUBLIC "-//W3C//DTD SVG 1.1//EN" "http://www.w3.org/Graphics/SVG/1.1/DTD/svg11.dtd">
<svg version="1.1" xmlns="http://www.w3.org/2000/svg" xmlns:xlink="http://www.w3.org/1999/xlink" width="20" height="20" viewBox="0 0 20 20">
<path d="M16.22 5.8c0.47 0.69 0.29 1.62-0.4 2.080-0.69 0.47-1.62 0.29-2.080-0.4-0.16-0.24-0.35-0.46-0.55-0.67-0.21-0.2-0.43-0.39-0.67-0.55s-0.5-0.3-0.77-0.41c-0.27-0.12-0.55-0.21-0.84-0.26-0.59-0.13-1.23-0.13-1.82-0.010-0.29 0.060-0.57 0.15-0.84 0.27-0.27 0.11-0.53 0.25-0.77 0.41s-0.46 0.35-0.66 0.55c-0.21 0.21-0.4 0.43-0.56 0.67s-0.3 0.5-0.41 0.76c-0.010 0.020-0.010 0.030-0.010 0.040-0.1 0.24-0.17 0.48-0.23 0.72h-4.61v-3h2.66c0.040-0.070 0.070-0.13 0.12-0.2 0.27-0.4 0.57-0.77 0.91-1.11s0.72-0.65 1.11-0.91c0.4-0.27 0.83-0.51 1.28-0.7s0.93-0.34 1.41-0.43c0.99-0.21 2.030-0.21 3.020 0 0.48 0.090 0.96 0.24 1.41 0.43s0.88 0.43 1.28 0.7c0.39 0.26 0.77 0.57 1.11 0.91s0.64 0.71 0.91 1.11zM12.5 10c0-1.38-1.12-2.5-2.5-2.5s-2.5 1.12-2.5 2.5 1.12 2.5 2.5 2.5 2.5-1.12 2.5-2.5zM3.78 14.2c-0.47-0.69-0.29-1.62 0.4-2.090 0.69-0.46 1.62-0.28 2.080 0.41 0.16 0.24 0.35 0.46 0.55 0.67 0.21 0.2 0.43 0.39 0.67 0.55s0.5 0.3 0.77 0.41c0.27 0.12 0.55 0.2 0.84 0.26 0.59 0.13 1.23 0.12 1.82 0 0.29-0.060 0.57-0.14 0.84-0.26 0.27-0.11 0.53-0.25 0.77-0.41s0.46-0.35 0.66-0.55c0.21-0.21 0.4-0.44 0.56-0.67 0.16-0.25 0.3-0.5 0.41-0.76 0.010-0.020 0.010-0.030 0.010-0.040 0.1-0.24 0.17-0.48 0.23-0.72h4.61v3h-2.66c-0.040 0.060-0.070 0.13-0.12 0.2-0.27 0.4-0.57 0.77-0.91 1.11s-0.72 0.65-1.11 0.91c-0.4 0.27-0.83 0.51-1.28 0.7s-0.93 0.33-1.41 0.43c-0.99 0.21-2.030 0.21-3.020 0-0.48-0.1-0.96-0.24-1.41-0.43s-0.88-0.43-1.28-0.7c-0.39-0.26-0.77-0.57-1.11-0.91s-0.64-0.71-0.91-1.11z"></path>
</svg>
