<?xml version="1.0" encoding="utf-8"?>
<!-- Generated by IcoMoon.io -->
<!DOCTYPE svg PUBLIC "-//W3C//DTD SVG 1.1//EN" "http://www.w3.org/Graphics/SVG/1.1/DTD/svg11.dtd">
<svg version="1.1" xmlns="http://www.w3.org/2000/svg" xmlns:xlink="http://www.w3.org/1999/xlink" width="20" height="20" viewBox="0 0 20 20">
<path d="M7 5.2c1.1 0 2 0.89 2 2 0 0.37-0.11 0.71-0.28 1 0 0-0.72-0.2-1.72-0.2s-1.72 0.2-1.72 0.2c-0.17-0.29-0.28-0.63-0.28-1 0-1.11 0.9-2 2-2zM13 5.2c1.11 0 2 0.89 2 2 0 0.37-0.11 0.71-0.28 1 0 0-0.72-0.2-1.72-0.2s-1.72 0.2-1.72 0.2c-0.17-0.29-0.28-0.63-0.28-1 0-1.11 0.89-2 2-2zM10 18.9c3.72 0 7.030-2.36 8.23-5.88l-1.32-0.46c-1.010 2.96-3.79 4.94-6.91 4.94s-5.9-1.98-6.91-4.94l-1.32 0.46c1.2 3.52 4.51 5.88 8.23 5.88z"></path>
</svg>
