<?xml version="1.0" encoding="utf-8"?>
<!-- Generated by IcoMoon.io -->
<!DOCTYPE svg PUBLIC "-//W3C//DTD SVG 1.1//EN" "http://www.w3.org/Graphics/SVG/1.1/DTD/svg11.dtd">
<svg version="1.1" xmlns="http://www.w3.org/2000/svg" xmlns:xlink="http://www.w3.org/1999/xlink" width="20" height="20" viewBox="0 0 20 20">
<path d="M18 10c0-4.42-3.58-8-8-8s-8 3.58-8 8 3.58 8 8 8 8-3.58 8-8zM7.23 3.57l1.49 3.73c-0.62 0.29-1.13 0.8-1.42 1.42l-3.73-1.49c0.71-1.64 2.020-2.95 3.66-3.66zM16.43 7.23l-3.73 1.49c-0.29-0.62-0.8-1.13-1.42-1.42l1.49-3.73c1.64 0.71 2.95 2.020 3.66 3.66zM10 12c-1.1 0-2-0.9-2-2s0.9-2 2-2 2 0.9 2 2-0.9 2-2 2zM3.57 12.77l3.73-1.49c0.29 0.62 0.8 1.13 1.42 1.42l-1.49 3.73c-1.64-0.71-2.95-2.020-3.66-3.66zM12.77 16.43l-1.49-3.73c0.62-0.29 1.13-0.8 1.42-1.42l3.73 1.49c-0.71 1.64-2.020 2.95-3.66 3.66z"></path>
</svg>
