<?xml version="1.0" encoding="utf-8"?>
<!-- Generated by IcoMoon.io -->
<!DOCTYPE svg PUBLIC "-//W3C//DTD SVG 1.1//EN" "http://www.w3.org/Graphics/SVG/1.1/DTD/svg11.dtd">
<svg version="1.1" xmlns="http://www.w3.org/2000/svg" xmlns:xlink="http://www.w3.org/1999/xlink" width="20" height="20" viewBox="0 0 20 20">
<path d="M1 10c0.41 0.29 0.96 0.43 1.5 0.43 0.55 0 1.090-0.14 1.5-0.43 0.62-0.46 1-1.17 1-2 0 0.83 0.37 1.54 1 2 0.41 0.29 0.96 0.43 1.5 0.43 0.55 0 1.090-0.14 1.5-0.43 0.62-0.46 1-1.17 1-2 0 0.83 0.37 1.54 1 2 0.41 0.29 0.96 0.43 1.51 0.43 0.54 0 1.080-0.14 1.49-0.43 0.62-0.46 1-1.17 1-2 0 0.83 0.37 1.54 1 2 0.41 0.29 0.96 0.43 1.5 0.43 0.55 0 1.090-0.14 1.5-0.43 0.63-0.46 1-1.17 1-2v-1l-3-7h-13l-4 7v1c0 0.83 0.37 1.54 1 2zM3 18.99h5v-5h4v5h5v-7c-0.37-0.050-0.72-0.22-1-0.43-0.63-0.45-1-0.73-1-1.56 0 0.83-0.38 1.11-1 1.56-0.41 0.3-0.95 0.43-1.49 0.44-0.55 0-1.1-0.14-1.51-0.44-0.63-0.45-1-0.73-1-1.56 0 0.83-0.38 1.11-1 1.56-0.41 0.3-0.95 0.43-1.5 0.44-0.54 0-1.090-0.14-1.5-0.44-0.63-0.45-1-0.73-1-1.57 0 0.84-0.38 1.12-1 1.57-0.29 0.21-0.63 0.38-1 0.44v6.99z"></path>
</svg>
