<?xml version="1.0" encoding="utf-8"?>
<!-- Generated by IcoMoon.io -->
<!DOCTYPE svg PUBLIC "-//W3C//DTD SVG 1.1//EN" "http://www.w3.org/Graphics/SVG/1.1/DTD/svg11.dtd">
<svg version="1.1" xmlns="http://www.w3.org/2000/svg" xmlns:xlink="http://www.w3.org/1999/xlink" width="20" height="20" viewBox="0 0 20 20">
<path d="M11 3v4h-10v-4h10zM19 3v4h-7v-4h7zM7 8v3h-6v-3h6zM19 8v3h-11v-3h11zM9 12v2h-8v-2h8zM19 12v2h-9v-2h9zM6 15v1h-5v-1h5zM11 15v1h-4v-1h4zM14 15v1h-2v-1h2zM19 15v1h-4v-1h4z"></path>
</svg>
