<?xml version="1.0" encoding="utf-8"?>
<!-- Generated by IcoMoon.io -->
<!DOCTYPE svg PUBLIC "-//W3C//DTD SVG 1.1//EN" "http://www.w3.org/Graphics/SVG/1.1/DTD/svg11.dtd">
<svg version="1.1" xmlns="http://www.w3.org/2000/svg" xmlns:xlink="http://www.w3.org/1999/xlink" width="20" height="20" viewBox="0 0 20 20">
<path d="M7.28 18c-0.15 0.020-0.26-0.020-0.41-0.070-0.56-0.19-0.83-0.79-0.66-1.35 0.17-0.55 1-3.040 1-3.58 0-0.53-0.75-1-1.35-1h-3c-0.6 0-1-0.4-1-1s2-7 2-7c0.17-0.39 0.55-1 1-1h9.14v9h-2.14c-0.41 0.41-3.3 4.71-3.58 5.27-0.21 0.41-0.6 0.68-1 0.73zM18 12h-2v-9h2v9z"></path>
</svg>
