<?xml version="1.0" encoding="utf-8"?>
<!-- Generated by IcoMoon.io -->
<!DOCTYPE svg PUBLIC "-//W3C//DTD SVG 1.1//EN" "http://www.w3.org/Graphics/SVG/1.1/DTD/svg11.dtd">
<svg version="1.1" xmlns="http://www.w3.org/2000/svg" xmlns:xlink="http://www.w3.org/1999/xlink" width="20" height="20" viewBox="0 0 20 20">
<path d="M20 6.38l-1.010 2.82v-0.010c-0.52-0.19-1.030-0.16-1.53 0.080s-0.85 0.62-1.040 1.14-0.16 1.030 0.070 1.53c0.24 0.5 0.62 0.84 1.15 1.030v0.010l-1.010 2.82-15.060-5.38 0.99-2.79c0.52 0.19 1.030 0.16 1.53-0.080 0.5-0.23 0.84-0.61 1.030-1.13s0.16-1.030-0.080-1.53c-0.23-0.49-0.61-0.83-1.13-1.020l1.020-2.87zM15.030 12.070l1.37-3.76c0.12-0.31 0.1-0.65-0.040-0.95s-0.39-0.53-0.7-0.65l-7.52-2.73c-0.64-0.23-1.37 0.12-1.6 0.74l-1.37 3.76c-0.24 0.65 0.1 1.37 0.74 1.6l7.52 2.74c0.14 0.050 0.28 0.080 0.43 0.080 0.52 0 1-0.33 1.17-0.83zM7.97 4.45l7.51 2.73c0.19 0.070 0.34 0.21 0.43 0.39 0.080 0.18 0.090 0.38 0.020 0.57l-1.37 3.76c-0.13 0.38-0.58 0.59-0.96 0.45l-7.51-2.74c-0.39-0.14-0.59-0.57-0.45-0.96l1.37-3.76c0.1-0.29 0.39-0.49 0.7-0.49 0.090 0 0.17 0.020 0.26 0.050zM14.79 16.59c0.35 0.27 0.75 0.41 1.2 0.41h0.010v3h-16v-2.96c0.55 0 1.030-0.2 1.41-0.59 0.39-0.38 0.59-0.86 0.59-1.41s-0.2-1.020-0.59-1.41-0.86-0.59-1.41-0.59v-3.040h1.050l-0.28 0.8 2.87 1.020c-0.51 0.16-0.89 0.62-0.89 1.18v4c0 0.69 0.56 1.25 1.25 1.25h8c0.69 0 1.25-0.56 1.25-1.25v-1.75l0.83 0.3c0.12 0.43 0.36 0.78 0.71 1.040zM3.25 17v-4c0-0.41 0.34-0.75 0.75-0.75h0.83l7.92 2.83v1.92c0 0.41-0.34 0.75-0.75 0.75h-8c-0.41 0-0.75-0.34-0.75-0.75z"></path>
</svg>
