<?xml version="1.0" encoding="utf-8"?>
<!-- Generated by IcoMoon.io -->
<!DOCTYPE svg PUBLIC "-//W3C//DTD SVG 1.1//EN" "http://www.w3.org/Graphics/SVG/1.1/DTD/svg11.dtd">
<svg version="1.1" xmlns="http://www.w3.org/2000/svg" xmlns:xlink="http://www.w3.org/1999/xlink" width="20" height="20" viewBox="0 0 20 20">
<path d="M20 5.38l-1.010 2.82v-0.010c-1.040-0.37-2.19 0.18-2.57 1.22-0.37 1.040 0.17 2.19 1.22 2.56v0.010l-1.010 2.82-15.060-5.38 0.99-2.79c1.040 0.38 2.19-0.17 2.56-1.21s-0.17-2.18-1.21-2.55l1.020-2.87zM14.55 8.75c0.74-2.080-0.34-4.37-2.42-5.12-2.080-0.74-4.37 0.35-5.11 2.42-0.74 2.080 0.34 4.38 2.42 5.12 2.070 0.74 4.37-0.35 5.11-2.42zM11.99 4.010c0.89 0.32 1.57 0.94 1.97 1.71-0.010-0.010-0.020-0.010-0.040-0.020-0.33-0.12-0.67 0.090-0.78 0.4-0.1 0.28-0.030 0.57 0.050 0.91 0.040 0.27 0.090 0.62-0.060 1.040-0.1 0.29-0.33 0.58-0.65 1l-0.74 1.010 0.080-4.080 0.4 0.11c0.19 0.040 0.26-0.24 0.080-0.29 0 0-0.57-0.15-0.92-0.28-0.34-0.12-0.88-0.36-0.88-0.36-0.18-0.080-0.3 0.19-0.12 0.27 0 0 0.16 0.080 0.34 0.16l0.010 1.63-1.53 1.96 0.080-4.11c0.2 0.060 0.4 0.11 0.4 0.11 0.19 0.040 0.26-0.23 0.070-0.29 0 0-0.56-0.15-0.91-0.28-0.070-0.020-0.14-0.050-0.22-0.080 0.93-0.7 2.19-0.94 3.37-0.52zM7.4 6.19c0.17-0.49 0.44-0.92 0.78-1.27l0.040 5c-0.94-0.95-1.3-2.39-0.82-3.73zM11.44 10.94l2.1-2.63c0.37-0.41 0.57-0.77 0.69-1.12 0.050-0.12 0.080-0.24 0.11-0.35 0.090 0.57 0.040 1.18-0.17 1.77-0.45 1.25-1.51 2.1-2.73 2.33zM10.74 7.72l0.020 3.22c0 0.020 0 0.040 0.010 0.060-0.4 0-0.8-0.070-1.2-0.21-0.33-0.12-0.63-0.28-0.9-0.48zM11.98 13.8l2.1 0.75c0.24 0.84 1 1.45 1.91 1.45h0.010v3h-16v-2.96c1.1 0 2-0.89 2-2 0-1.1-0.9-2-2-2v-3.040h1.050l-0.28 0.8 4.28 1.52c-0.65 0.71-1.050 1.65-1.050 2.68 0 2.21 1.79 4 4 4s4-1.79 4-4c0-0.070-0.020-0.13-0.020-0.2zM5.45 11.47l1.48 0.53c-0.14 0.040-0.15 0.27 0.030 0.28 0 0 0.18 0.020 0.37 0.030l0.56 1.54-0.78 2.36-1.31-3.9c0.21-0.010 0.41-0.030 0.41-0.030 0.19-0.020 0.17-0.31-0.020-0.3 0 0-0.59 0.050-0.96 0.050-0.070 0-0.15 0-0.23-0.010 0.13-0.2 0.28-0.38 0.45-0.55zM4.4 14c0-0.52 0.12-1.020 0.32-1.46l1.71 4.7c-1.2-0.59-2.030-1.82-2.030-3.24zM8.59 12.59l1.72 0.62c0.070 0.17 0.12 0.37 0.12 0.61 0 0.31-0.12 0.66-0.28 1.16l-0.35 1.2zM11.6 14c0 1.33-0.72 2.49-1.79 3.11l1.1-3.18c0.060-0.17 0.1-0.31 0.14-0.46l0.52 0.19c0.020 0.11 0.030 0.22 0.030 0.34zM6.98 17.45l1.080-3.14 1.11 3.030c0.010 0.020 0.010 0.040 0.020 0.050-0.37 0.13-0.77 0.21-1.19 0.21-0.35 0-0.69-0.060-1.020-0.15z"></path>
</svg>
