<?xml version="1.0" encoding="utf-8"?>
<!-- Generated by IcoMoon.io -->
<!DOCTYPE svg PUBLIC "-//W3C//DTD SVG 1.1//EN" "http://www.w3.org/Graphics/SVG/1.1/DTD/svg11.dtd">
<svg version="1.1" xmlns="http://www.w3.org/2000/svg" xmlns:xlink="http://www.w3.org/1999/xlink" width="20" height="20" viewBox="0 0 20 20">
<path d="M11 7h-1.51c-0.63 0-1.25 0.3-1.59 0.7l-0.9-2.7h-2.87l-2.39 7h1.69l0.74-2h2.83v4h-5c-1.1 0-2-0.9-2-2v-7c0-1.1 0.9-2 2-2h7c1.1 0 2 0.9 2 2v2zM6.51 9h-2.020l1-2.93zM10 8h7c1.1 0 2 0.9 2 2v7c0 1.1-0.9 2-2 2h-7c-1.1 0-2-0.9-2-2v-7c0-1.1 0.9-2 2-2zM17.25 13v-1.080h-3.17v-2.17h-1.16v2.17h-3.17v1.080h1.28c0.11 0.85 0.56 1.85 1.28 2.62-0.87 0.36-1.89 0.62-2.31 0.62-0.010 0.020 0.22 0.97 0.2 1.46 0.84 0 2.21-0.5 3.28-1.15 1.090 0.65 2.48 1.15 3.34 1.15-0.020-0.49 0.2-1.44 0.2-1.46-0.43 0-1.49-0.27-2.38-0.63 0.7-0.77 1.14-1.77 1.25-2.61h1.36zM13.44 14.93c-0.5-0.46-0.85-1.13-1.010-1.93h2.090c-0.17 0.8-0.51 1.47-1 1.93l-0.040 0.030s-0.030-0.020-0.040-0.030z"></path>
</svg>
