<?xml version="1.0" encoding="utf-8"?>
<!-- Generator: Adobe Illustrator 23.0.1, SVG Export Plug-In . SVG Version: 6.00 Build 0)  -->
<svg version="1.1" id="Layer_1" xmlns="http://www.w3.org/2000/svg" xmlns:xlink="http://www.w3.org/1999/xlink" x="0px" y="0px"
	 viewBox="0 0 20 20" style="enable-background:new 0 0 20 20;" xml:space="preserve">
<path d="M13.9,13.8H8.5c-0.2,0-0.3-0.1-0.3-0.4v-3h5.7c1.1,0,2.1-0.9,2.1-2.1c0-1.2-1-2.1-2.1-2.1H8.2V4.1C8.2,2.9,7.2,2,6,2
	C4.9,2,4,2.9,4,4.1v9.1c0,0,0,0.1,0,0.1c0,2.7,1.5,4.6,4.6,4.7c0.1,0,0.1,0,0.2,0h5.2c1.1,0,2.1-1,2.1-2.1
	C16,14.7,15,13.8,13.9,13.8z"/>
</svg>
