<?xml version="1.0" encoding="utf-8"?>
<!-- Generated by IcoMoon.io -->
<!DOCTYPE svg PUBLIC "-//W3C//DTD SVG 1.1//EN" "http://www.w3.org/Graphics/SVG/1.1/DTD/svg11.dtd">
<svg version="1.1" xmlns="http://www.w3.org/2000/svg" xmlns:xlink="http://www.w3.org/1999/xlink" width="20" height="20" viewBox="0 0 20 20">
<path d="M18.94 4.46c-0.49 0.73-1.11 1.38-1.83 1.9 0.010 0.15 0.010 0.31 0.010 0.47 0 4.85-3.69 10.44-10.43 10.44-2.070 0-4-0.61-5.63-1.65 0.29 0.030 0.58 0.050 0.88 0.050 1.72 0 3.3-0.59 4.55-1.57-1.6-0.030-2.95-1.090-3.42-2.55 0.22 0.040 0.45 0.070 0.69 0.070 0.33 0 0.66-0.050 0.96-0.13-1.67-0.34-2.94-1.82-2.94-3.6v-0.040c0.5 0.27 1.060 0.44 1.66 0.46-0.98-0.66-1.63-1.78-1.63-3.060 0-0.67 0.18-1.3 0.5-1.84 1.81 2.22 4.51 3.68 7.56 3.83-0.060-0.27-0.1-0.55-0.1-0.84 0-2.020 1.65-3.66 3.67-3.66 1.060 0 2.010 0.44 2.68 1.16 0.83-0.17 1.62-0.47 2.33-0.89-0.28 0.85-0.86 1.57-1.62 2.020 0.75-0.080 1.45-0.28 2.11-0.57z"></path>
</svg>
