<?xml version="1.0" encoding="utf-8"?>
<!-- Generated by IcoMoon.io -->
<!DOCTYPE svg PUBLIC "-//W3C//DTD SVG 1.1//EN" "http://www.w3.org/Graphics/SVG/1.1/DTD/svg11.dtd">
<svg version="1.1" xmlns="http://www.w3.org/2000/svg" xmlns:xlink="http://www.w3.org/1999/xlink" width="20" height="20" viewBox="0 0 20 20">
<path d="M10 2.6c0.83 0 1.5 0.67 1.5 1.5s-0.67 1.51-1.5 1.51c-0.82 0-1.5-0.68-1.5-1.51s0.68-1.5 1.5-1.5zM3.4 7.36c0-0.65 6.6-0.76 6.6-0.76s6.6 0.11 6.6 0.76-4.47 1.4-4.47 1.4 1.69 8.14 1.060 8.38c-0.62 0.24-3.19-5.19-3.19-5.19s-2.56 5.43-3.18 5.19c-0.63-0.24 1.060-8.38 1.060-8.38s-4.48-0.75-4.48-1.4z"></path>
</svg>
