<?xml version="1.0" encoding="utf-8"?>
<!-- Generator: Adobe Illustrator 23.0.1, SVG Export Plug-In . SVG Version: 6.00 Build 0)  -->
<svg version="1.1" id="Layer_1" xmlns="http://www.w3.org/2000/svg" xmlns:xlink="http://www.w3.org/1999/xlink" x="0px" y="0px"
	 viewBox="0 0 20 20" style="enable-background:new 0 0 20 20;" xml:space="preserve">
<path d="M5.7,9C6.1,7,7.9,5.5,10,5.5c1.5,0,2.7,0.7,3.5,1.8l1.7-2C14,3.9,12.1,3,10,3C6.5,3,3.6,5.6,3.1,9H1l3.5,4L8,9H5.7z M15.5,7
	L12,11h2.3c-0.5,2-2.2,3.5-4.3,3.5c-1.5,0-2.7-0.7-3.5-1.8l-1.7,1.9C6,16.1,7.9,17,10,17c3.5,0,6.4-2.6,6.9-6H19L15.5,7z"/>
</svg>
