<?xml version="1.0" encoding="utf-8"?>
<!-- Generated by IcoMoon.io -->
<!DOCTYPE svg PUBLIC "-//W3C//DTD SVG 1.1//EN" "http://www.w3.org/Graphics/SVG/1.1/DTD/svg11.dtd">
<svg version="1.1" xmlns="http://www.w3.org/2000/svg" xmlns:xlink="http://www.w3.org/1999/xlink" width="20" height="20" viewBox="0 0 20 20">
<path d="M18 17v-14c0-0.55-0.45-1-1-1h-14c-0.55 0-1 0.45-1 1v14c0 0.55 0.45 1 1 1h14c0.55 0 1-0.45 1-1zM17 17h-14v-14h14v14zM4.75 4h10.5c0.41 0 0.75 0.34 0.75 0.75v1.25h-1v3h1v2h-1v3h1v1.25c0 0.41-0.34 0.75-0.75 0.75h-10.5c-0.41 0-0.75-0.34-0.75-0.75v-10.5c0-0.41 0.34-0.75 0.75-0.75zM13 10c0-2.21-1.79-4-4-4s-4 1.79-4 4 1.79 4 4 4 4-1.79 4-4zM9 7l0.77 1.15c0.72 0.31 1.23 1.020 1.23 1.85 0 1.1-0.9 2-2 2s-2-0.9-2-2c0-0.83 0.51-1.54 1.23-1.85z"></path>
</svg>
