<?xml version="1.0" encoding="utf-8"?>
<!-- Generated by IcoMoon.io -->
<!DOCTYPE svg PUBLIC "-//W3C//DTD SVG 1.1//EN" "http://www.w3.org/Graphics/SVG/1.1/DTD/svg11.dtd">
<svg version="1.1" xmlns="http://www.w3.org/2000/svg" xmlns:xlink="http://www.w3.org/1999/xlink" width="20" height="20" viewBox="0 0 20 20">
<path d="M8 5c0-0.55-0.45-1-1-1h-5c-0.55 0-1 0.45-1 1 0 0.57 0.49 1 1 1h5c0.55 0 1-0.45 1-1zM14 10l4-4v10l-4-4v-2zM13 14v-6c0-0.55-0.45-1-1-1h-8c-0.55 0-1 0.45-1 1v6c0 0.55 0.45 1 1 1h8c0.55 0 1-0.45 1-1z"></path>
</svg>
