<svg xmlns="http://www.w3.org/2000/svg" width="20" height="20" viewBox="0 0 20 20">
  <title>visible</title>
  <path d="M18.332,9.452A10.3,10.3,0,0,0,.964,10.564a10.481,10.481,0,0,0,.759,1.187,10.175,10.175,0,0,0,16.554,0,10.481,10.481,0,0,0,.759-1.187A10.227,10.227,0,0,0,18.332,9.452Zm-6.364-.4a1.29,1.29,0,1,1,0-1.824A1.289,1.289,0,0,1,11.968,9.056ZM10,14.874a9.14,9.14,0,0,1-7.66-4.188A9.175,9.175,0,0,1,7.014,7.2a4.116,4.116,0,0,0-1.05,2.742,4.035,4.035,0,1,0,8.069,0A4.119,4.119,0,0,0,12.983,7.2a9.174,9.174,0,0,1,4.677,3.491A9.14,9.14,0,0,1,10,14.874Z"/>
</svg>
