<?xml version="1.0" encoding="utf-8"?>
<!-- Generated by IcoMoon.io -->
<!DOCTYPE svg PUBLIC "-//W3C//DTD SVG 1.1//EN" "http://www.w3.org/Graphics/SVG/1.1/DTD/svg11.dtd">
<svg version="1.1" xmlns="http://www.w3.org/2000/svg" xmlns:xlink="http://www.w3.org/1999/xlink" width="20" height="20" viewBox="0 0 20 20">
<path d="M10 10l-7.46-2.98 0.46 10.98h-2l0.48-11.41-1.48-0.59 10-4 10 4zM10 5c-0.55 0-1 0.22-1 0.5s0.45 0.5 1 0.5 1-0.22 1-0.5-0.45-0.5-1-0.5zM10 11l5.57-2.23c0.71 0.94 1.2 2.070 1.36 3.3-0.3-0.040-0.61-0.070-0.93-0.070-2.55 0-4.78 1.37-6 3.41-1.22-2.040-3.45-3.41-6-3.41-0.32 0-0.63 0.030-0.93 0.070 0.16-1.23 0.65-2.36 1.36-3.3z"></path>
</svg>
