<?xml version="1.0" encoding="utf-8"?>
<!-- Generated by IcoMoon.io -->
<!DOCTYPE svg PUBLIC "-//W3C//DTD SVG 1.1//EN" "http://www.w3.org/Graphics/SVG/1.1/DTD/svg11.dtd">
<svg version="1.1" xmlns="http://www.w3.org/2000/svg" xmlns:xlink="http://www.w3.org/1999/xlink" width="20" height="20" viewBox="0 0 20 20">
<path d="M5 2h10c1.1 0 2 0.9 2 2v8c0 1.1-0.9 2-2 2h-2l-5 5v-5h-3c-1.1 0-2-0.9-2-2v-8c0-1.1 0.9-2 2-2zM13.5 10.5l-2.5-2.5 2.5-2.5-1-1-2.5 2.5-2.5-2.5-1 1 2.5 2.5-2.5 2.5 1 1 2.5-2.5 2.5 2.5z"></path>
</svg>
