<?xml version="1.0" encoding="utf-8"?>
<!-- Generated by IcoMoon.io -->
<!DOCTYPE svg PUBLIC "-//W3C//DTD SVG 1.1//EN" "http://www.w3.org/Graphics/SVG/1.1/DTD/svg11.dtd">
<svg version="1.1" xmlns="http://www.w3.org/2000/svg" xmlns:xlink="http://www.w3.org/1999/xlink" width="20" height="20" viewBox="0 0 20 20">
<path d="M19 16v-13c0-0.55-0.45-1-1-1h-15c-0.55 0-1 0.45-1 1v13c0 0.55 0.45 1 1 1h15c0.55 0 1-0.45 1-1zM4 4h13v4h-13v-4zM5 5v2h3v-2h-3zM9 5v2h3v-2h-3zM13 5v2h3v-2h-3zM4.5 10c0.28 0 0.5 0.22 0.5 0.5s-0.22 0.5-0.5 0.5-0.5-0.22-0.5-0.5 0.22-0.5 0.5-0.5zM6 10h4v1h-4v-1zM12 10h5v5h-5v-5zM4.5 12c0.28 0 0.5 0.22 0.5 0.5s-0.22 0.5-0.5 0.5-0.5-0.22-0.5-0.5 0.22-0.5 0.5-0.5zM6 12h4v1h-4v-1zM13 12v2h3v-2h-3zM4.5 14c0.28 0 0.5 0.22 0.5 0.5s-0.22 0.5-0.5 0.5-0.5-0.22-0.5-0.5 0.22-0.5 0.5-0.5zM6 14h4v1h-4v-1z"></path>
</svg>
