<?xml version="1.0" encoding="utf-8"?>
<!-- Generated by IcoMoon.io -->
<!DOCTYPE svg PUBLIC "-//W3C//DTD SVG 1.1//EN" "http://www.w3.org/Graphics/SVG/1.1/DTD/svg11.dtd">
<svg version="1.1" xmlns="http://www.w3.org/2000/svg" xmlns:xlink="http://www.w3.org/1999/xlink" width="20" height="20" viewBox="0 0 20 20">
<path d="M20 10c0-5.51-4.49-10-10-10-5.52 0-10 4.49-10 10 0 5.52 4.48 10 10 10 5.51 0 10-4.48 10-10zM7.78 15.37l-3.41-9.15c0.55-0.020 1.17-0.080 1.17-0.080 0.5-0.060 0.44-1.13-0.060-1.11 0 0-1.45 0.11-2.37 0.11-0.18 0-0.37 0-0.58-0.010 1.59-2.44 4.34-4.020 7.47-4.020 2.33 0 4.45 0.87 6.050 2.34-0.68-0.11-1.65 0.39-1.65 1.58 0 0.74 0.45 1.36 0.9 2.1 0.35 0.61 0.55 1.36 0.55 2.46 0 1.49-1.4 5-1.4 5l-3.030-8.37c0.54-0.020 0.82-0.17 0.82-0.17 0.5-0.050 0.44-1.25-0.060-1.22 0 0-1.44 0.12-2.38 0.12-0.87 0-2.33-0.12-2.33-0.12-0.5-0.030-0.56 1.2-0.060 1.22l0.92 0.080 1.26 3.41zM17.41 10c0.24-0.64 0.74-1.87 0.43-4.25 0.7 1.29 1.050 2.71 1.050 4.25 0 3.29-1.73 6.24-4.4 7.78 0.97-2.59 1.94-5.2 2.92-7.78zM6.1 18.090c-2.98-1.44-4.99-4.56-4.99-8.090 0-1.3 0.23-2.48 0.72-3.59 1.42 3.89 2.84 7.79 4.27 11.68zM10.13 11.46l2.58 6.98c-0.86 0.29-1.76 0.45-2.71 0.45-0.79 0-1.57-0.11-2.29-0.33 0.81-2.38 1.62-4.74 2.42-7.1z"></path>
</svg>
