<?xml version="1.0" encoding="utf-8"?>
<!-- Generated by IcoMoon.io -->
<!DOCTYPE svg PUBLIC "-//W3C//DTD SVG 1.1//EN" "http://www.w3.org/Graphics/SVG/1.1/DTD/svg11.dtd">
<svg version="1.1" xmlns="http://www.w3.org/2000/svg" xmlns:xlink="http://www.w3.org/1999/xlink" width="20" height="20" viewBox="0 0 20 20">
<path d="M20 10c0-5.52-4.48-10-10-10s-10 4.48-10 10 4.48 10 10 10 10-4.48 10-10zM10 1.010c4.97 0 8.99 4.020 8.99 8.99s-4.020 8.99-8.99 8.99-8.99-4.020-8.99-8.99 4.020-8.99 8.99-8.99zM8.010 14.82l-3.050-8.21c0.49-0.030 1.050-0.080 1.050-0.080 0.43-0.050 0.38-1.010-0.060-0.99 0 0-1.29 0.1-2.13 0.1-0.15 0-0.33 0-0.52-0.010 1.44-2.17 3.9-3.6 6.7-3.6 2.090 0 3.99 0.79 5.41 2.090-0.6-0.080-1.45 0.35-1.45 1.42 0 0.66 0.38 1.22 0.79 1.88 0.31 0.54 0.5 1.22 0.5 2.21 0 1.34-1.27 4.48-1.27 4.48l-2.71-7.5c0.48-0.030 0.75-0.16 0.75-0.16 0.43-0.050 0.38-1.1-0.050-1.080 0 0-1.3 0.11-2.14 0.11-0.78 0-2.11-0.11-2.11-0.11-0.43-0.020-0.48 1.060-0.050 1.080l0.84 0.080 1.12 3.040zM14.030 16.97l2.61-6.97s0.67-1.69 0.39-3.81c0.63 1.14 0.94 2.42 0.94 3.81 0 2.96-1.56 5.58-3.94 6.97zM2.68 6.77l3.82 10.48c-2.67-1.3-4.47-4.080-4.47-7.25 0-1.16 0.2-2.23 0.65-3.23zM10.13 11.3l2.29 6.25c-0.75 0.27-1.57 0.42-2.42 0.42-0.72 0-1.41-0.11-2.060-0.3z"></path>
</svg>
