<svg xmlns="http://www.w3.org/2000/svg" viewBox="0 0 24 24" style="fill: none" stroke="currentColor" stroke-width="1.5">
	<path d="M10.817 3.052C11.602 2.948 12.398 2.948 13.183 3.052M15.476 3.659C16.207 3.962 16.896 4.359 17.524 4.841M19.159 6.476C19.641 7.104 20.038 7.793 20.341 8.524M20.948 10.817C21.052 11.602 21.052 12.398 20.948 13.183M20.341 15.476C20.038 16.207 19.641 16.896 19.159 17.524M17.524 19.159C16.896 19.641 16.207 20.038 15.476 20.341M13.183 20.948C12.398 21.052 11.602 21.052 10.817 20.948M8.524 20.341C7.793 20.038 7.104 19.641 6.476 19.159M4.841 17.524C4.359 16.896 3.962 16.207 3.659 15.476M3.052 13.183C2.948 12.398 2.948 11.602 3.052 10.817M3.659 8.524C3.962 7.793 4.359 7.104 4.841 6.476M6.476 4.841C7.104 4.359 7.793 3.962 8.524 3.659" />
</svg>
