<?xml version="1.0" encoding="utf-8"?>
<!-- Generator: Adobe Illustrator 21.0.2, SVG Export Plug-In . SVG Version: 6.00 Build 0)  -->
<svg version="1.1" id="Layer_1" xmlns="http://www.w3.org/2000/svg" xmlns:xlink="http://www.w3.org/1999/xlink" x="0px" y="0px"
	 viewBox="0 0 20 20" style="enable-background:new 0 0 20 20;" xml:space="preserve">
<g>
	<path d="M17,5H3C1.9,5,1,5.9,1,7v6c0,1.1,0.9,2,2,2h14c1.1,0,2-0.9,2-2V7C19,5.9,18.1,5,17,5z M18,12c0,0.6-0.4,1-1,1H3
		c-0.6,0-1-0.4-1-1V7c0-0.6,0.4-1,1-1h14c0.6,0,1,0.4,1,1V12z"/>
</g>
</svg>
