<?xml version="1.0" encoding="utf-8"?>
<!-- Generator: Adobe Illustrator 21.1.0, SVG Export Plug-In . SVG Version: 6.00 Build 0)  -->
<svg version="1.1" id="Layer_1" xmlns="http://www.w3.org/2000/svg" xmlns:xlink="http://www.w3.org/1999/xlink" x="0px" y="0px"
	 viewBox="0 0 20 20" style="enable-background:new 0 0 20 20;" xml:space="preserve">
<path d="M14.8,9C14.9,8.7,15,8.4,15,8c0-2.2-1.8-4-4-4C9.5,4,8.1,4.9,7.5,6.2C7.2,6.1,6.8,6,6.5,6C5.1,6,4,7.1,4,8.5
	C4,8.7,4,8.9,4.1,9C2.3,9.3,1,10.7,1,12.5C1,14.4,2.6,16,4.5,16H8v-3H5l4.5-4.5L14,13h-3v3h3.5c1.9,0,3.5-1.6,3.5-3.5
	C18,10.7,16.6,9.2,14.8,9z"/>
</svg>
