<?xml version="1.0" encoding="utf-8"?>
<!-- Generator: Adobe Illustrator 21.0.2, SVG Export Plug-In . SVG Version: 6.00 Build 0)  -->
<svg version="1.1" id="Layer_1" xmlns="http://www.w3.org/2000/svg" xmlns:xlink="http://www.w3.org/1999/xlink" x="0px" y="0px"
	 viewBox="0 0 20 20" enable-background="new 0 0 20 20" xml:space="preserve">
<g>
	<path d="M5,10c0,1.1-0.9,2-2,2s-2-0.9-2-2s0.9-2,2-2S5,8.9,5,10z M17,8c-1.1,0-2,0.9-2,2s0.9,2,2,2s2-0.9,2-2S18.1,8,17,8z M10,8
		c-1.1,0-2,0.9-2,2s0.9,2,2,2s2-0.9,2-2S11.1,8,10,8z"/>
</g>
</svg>
