<?xml version="1.0" encoding="utf-8"?>
<!-- Generator: Adobe Illustrator 21.1.0, SVG Export Plug-In . SVG Version: 6.00 Build 0)  -->
<svg version="1.1" id="Layer_1" xmlns="http://www.w3.org/2000/svg" xmlns:xlink="http://www.w3.org/1999/xlink" x="0px" y="0px"
	 viewBox="0 0 20 20" style="enable-background:new 0 0 20 20;" xml:space="preserve">
<path d="M17,4H3C1.9,4,1,4.9,1,6v8c0,1.1,0.9,2,2,2h14c1.1,0,2-0.9,2-2V6C19,4.9,18.1,4,17,4z M10,12H3V6h7V12z M14,10.5L12.5,12
	l1.5,1.5V15l-3-3l3-3V10.5z M15,15v-1.5l1.5-1.5L15,10.5V9l3,3L15,15z M9,11V8.5L7.2,10L6,9.2L4,11H9z M4.6,8.6c0.6,0,1-0.4,1-1
	c0-0.6-0.4-1-1-1c-0.6,0-1,0.4-1,1C3.6,8.2,4,8.6,4.6,8.6z"/>
</svg>
