<?xml version="1.0" encoding="utf-8"?>
<!-- Generator: Adobe Illustrator 21.1.0, SVG Export Plug-In . SVG Version: 6.00 Build 0)  -->
<svg version="1.1" id="Layer_1" xmlns="http://www.w3.org/2000/svg" xmlns:xlink="http://www.w3.org/1999/xlink" x="0px" y="0px"
	 width="20px" height="20px" viewBox="0 0 20 20" style="enable-background:new 0 0 20 20;" xml:space="preserve">
<path d="M17,4H3C1.9,4,1,4.9,1,6v8c0,1.1,0.9,2,2,2h14c1.1,0,2-0.9,2-2V6C19,4.9,18.1,4,17,4z M8.6,9L8.2,9.3
	C7.8,9.7,7.7,10.4,8,10.9l-0.8,0.8l-1.1-1.1l-1.3,1.3C4.6,12.1,3.2,13.2,3,13c-0.2-0.2,0.9-1.6,1.1-1.8l1.3-1.3L4.3,8.8L5.1,8
	c0.5,0.3,1.2,0.3,1.6-0.2L7,7.5C7.5,7,7.5,6.3,7.2,5.8L8,5l3,2.9l-0.8,0.8C9.7,8.5,9,8.5,8.6,9z M14,10.5L12.5,12l1.5,1.5V15l-3-3
	l3-3V10.5z M15,15v-1.5l1.5-1.5L15,10.5V9l3,3L15,15z"/>
</svg>
