<?xml version="1.0" encoding="utf-8"?>
<!-- Generator: Adobe Illustrator 21.1.0, SVG Export Plug-In . SVG Version: 6.00 Build 0)  -->
<svg version="1.1" id="Layer_1" xmlns="http://www.w3.org/2000/svg" xmlns:xlink="http://www.w3.org/1999/xlink" x="0px" y="0px"
	 viewBox="0 0 20 20" style="enable-background:new 0 0 20 20;" xml:space="preserve">
<g>
	<path d="M4,16v-2H2v2H1v-5h1v2h2v-2h1v5H4z"/>
	<path d="M7,16v-4H5.6v-1h3.7v1H8v4H7z"/>
	<path d="M10,16v-5h1l1.4,3.4h0.1L14,11h1v5h-1v-3.1h-0.1l-1.1,2.5h-0.6l-1.1-2.5H11V16H10z"/>
	<path d="M19,16h-3v-5h1v4h2V16z"/>
</g>
<path d="M9.4,4.2L7.1,6.5l2.3,2.3L8.8,10L5.3,6.5L8.8,3L9.4,4.2z M10.6,8.8l2.3-2.3l-2.3-2.3L11.2,3l3.5,3.5L11.2,10L10.6,8.8z"/>
</svg>
