<?xml version="1.0" encoding="utf-8"?>
<!-- Generator: Adobe Illustrator 21.1.0, SVG Export Plug-In . SVG Version: 6.00 Build 0)  -->
<svg version="1.1" id="Layer_1" xmlns="http://www.w3.org/2000/svg" xmlns:xlink="http://www.w3.org/1999/xlink" x="0px" y="0px"
	 viewBox="0 0 20 20" style="enable-background:new 0 0 20 20;" xml:space="preserve">
<path d="M11,8H9v2H7v2h2v2h2v-2h2v-2h-2V8z M10,4c-3.9,0-7,3.1-7,7s3.1,7,7,7s7-3.1,7-7S13.9,4,10,4z M10,16c-2.8,0-5-2.2-5-5
	s2.2-5,5-5s5,2.2,5,5S12.8,16,10,16z M3,1v2h14V1H3z"/>
</svg>
