<?xml version="1.0" encoding="utf-8"?>
<!-- Generator: Adobe Illustrator 21.1.0, SVG Export Plug-In . SVG Version: 6.00 Build 0)  -->
<svg version="1.1" id="Layer_1" xmlns="http://www.w3.org/2000/svg" xmlns:xlink="http://www.w3.org/1999/xlink" x="0px" y="0px"
	 viewBox="0 0 20 20" style="enable-background:new 0 0 20 20;" xml:space="preserve">
<path d="M9,12h2v-2h2V8h-2V6H9v2H7v2h2V12z M10,16c3.9,0,7-3.1,7-7s-3.1-7-7-7S3,5.1,3,9S6.1,16,10,16z M10,4c2.8,0,5,2.2,5,5
	s-2.2,5-5,5s-5-2.2-5-5S7.2,4,10,4z M3,19h14v-2H3V19z"/>
</svg>
