<?xml version="1.0" encoding="utf-8"?>
<!-- Generator: Adobe Illustrator 21.0.2, SVG Export Plug-In . SVG Version: 6.00 Build 0)  -->
<svg version="1.1" id="saved" xmlns="http://www.w3.org/2000/svg" xmlns:xlink="http://www.w3.org/1999/xlink" x="0px" y="0px"
	 viewBox="0 0 20 20" style="enable-background:new 0 0 20 20;" xml:space="preserve">
	 <path d="M6.4,9.98l1.28,-1.28v-0.256l-1.28,-1.28v2.8160000000000003zM12.8,8.448l1.28,-1.28v2.752l-1.28,-1.28v-0.192zM20.48,17.92v-17.92h-20.48v17.92h20.48zM19.2,15.36h-5.12v-1.024l-0.256,0.256l-1.024,-1.024v1.7919999999999998h-5.12v-1.7919999999999998l-1.024,1.024l-0.256,-0.256v1.024h-5.12v-14.08h5.12v2.3680000000000003l0.7040000000000001,-0.7040000000000001l0.5760000000000001,0.5760000000000001v-2.3040000000000003h5.12v2.3040000000000003l0.96,-0.96l0.32,0.32v-1.6640000000000001h5.12v14.144000000000002zM13.44,13.248l-3.136,-3.136l-3.264,3.264l-1.536,-1.536l3.264,-3.264l-3.136,-3.136l1.536,-1.536l3.136,3.136l3.2,-3.2l1.536,1.536l-3.2,3.2l3.136,3.136l-1.536,1.536z" />
</svg>
