<?xml version="1.0" encoding="utf-8"?>
<!-- Generator: Adobe Illustrator 21.0.2, SVG Export Plug-In . SVG Version: 6.00 Build 0)  -->
<svg version="1.1" id="saved" xmlns="http://www.w3.org/2000/svg" xmlns:xlink="http://www.w3.org/1999/xlink" x="0px" y="0px"
	 viewBox="0 0 20 20" style="enable-background:new 0 0 20 20;" xml:space="preserve">
	 <path d="M17.728,11.456l-3.136,-3.136l3.2,-3.2l-1.536,-1.536l-3.2,3.2l-3.136,-3.136l-1.536,1.472l3.2,3.2l-3.264,3.264l1.536,1.536l3.264,-3.264l3.136,3.136l1.472,-1.536zM0,17.92v-17.92h20.48v17.92h-20.48zM19.2,11.52h-0.44799999999999995l-1.28,-1.28h1.7280000000000002v-3.84h-1.7919999999999998l1.28,-1.28h0.512v-3.84h-17.92v3.84h6.207999999999999l1.28,1.28h-7.4879999999999995v3.84h7.4239999999999995l-1.28,1.28h-6.144v3.84h17.92v-3.84z" />
</svg>
