<svg width="821" height="400" viewBox="0 0 821 400" fill="none" xmlns="http://www.w3.org/2000/svg">
<g clip-path="url(#clip0_15778_6552)">
<rect width="821" height="400" rx="8" fill="#3858E9"/>
<rect x="-211" y="60" width="835" height="662" rx="48" fill="#607AEE"/>
<rect x="-210.5" y="60.5" width="834" height="661" rx="47.5" stroke="white" stroke-opacity="0.2"/>
<rect x="-34" y="107" width="111" height="40" rx="20" fill="#7D92F1"/>
<rect x="-33.5" y="107.5" width="110" height="39" rx="19.5" stroke="white" stroke-opacity="0.2"/>
<rect x="93" y="107" width="111" height="40" rx="20" fill="#7D92F1"/>
<rect x="93.5" y="107.5" width="110" height="39" rx="19.5" stroke="white" stroke-opacity="0.2"/>
<rect x="220" y="107" width="111" height="40" rx="20" fill="#7D92F1"/>
<rect x="220.5" y="107.5" width="110" height="39" rx="19.5" stroke="white" stroke-opacity="0.2"/>
<rect x="537" y="107" width="40" height="40" rx="12" fill="#7D92F1"/>
<rect x="537.5" y="107.5" width="39" height="39" rx="11.5" stroke="white" stroke-opacity="0.2"/>
<g filter="url(#filter0_dddd_15778_6552)">
<rect x="242" y="163" width="335" height="502" rx="24" fill="#93A4F4"/>
<rect x="242.5" y="163.5" width="334" height="501" rx="23.5" stroke="white" stroke-opacity="0.2"/>
</g>
<rect x="266" y="187" width="287" height="62" rx="12" fill="#ADBBFB"/>
<rect x="266.5" y="187.5" width="286" height="61" rx="11.5" stroke="white" stroke-opacity="0.2"/>
<rect x="266" y="281" width="40" height="40" rx="20" fill="#ADBBFB"/>
<rect x="266.5" y="281.5" width="39" height="39" rx="19.5" stroke="white" stroke-opacity="0.2"/>
<rect x="266" y="337" width="40" height="40" rx="20" fill="#ADBBFB"/>
<rect x="266.5" y="337.5" width="39" height="39" rx="19.5" stroke="white" stroke-opacity="0.2"/>
<rect x="266" y="393" width="40" height="40" rx="20" fill="#ADBBFB"/>
<rect x="266.5" y="393.5" width="39" height="39" rx="19.5" stroke="white" stroke-opacity="0.2"/>
<rect x="502" y="198" width="40" height="40" rx="6" fill="#CCD4FF"/>
<rect x="502.5" y="198.5" width="39" height="39" rx="5.5" stroke="white" stroke-opacity="0.2"/>
</g>
<defs>
<filter id="filter0_dddd_15778_6552" x="143" y="144" width="533" height="867" filterUnits="userSpaceOnUse" color-interpolation-filters="sRGB">
<feFlood flood-opacity="0" result="BackgroundImageFix"/>
<feColorMatrix in="SourceAlpha" type="matrix" values="0 0 0 0 0 0 0 0 0 0 0 0 0 0 0 0 0 0 127 0" result="hardAlpha"/>
<feOffset dy="15"/>
<feGaussianBlur stdDeviation="17"/>
<feColorMatrix type="matrix" values="0 0 0 0 0.0117647 0 0 0 0 0.0627451 0 0 0 0 0.329412 0 0 0 0.1 0"/>
<feBlend mode="normal" in2="BackgroundImageFix" result="effect1_dropShadow_15778_6552"/>
<feColorMatrix in="SourceAlpha" type="matrix" values="0 0 0 0 0 0 0 0 0 0 0 0 0 0 0 0 0 0 127 0" result="hardAlpha"/>
<feOffset dy="62"/>
<feGaussianBlur stdDeviation="31"/>
<feColorMatrix type="matrix" values="0 0 0 0 0.0117647 0 0 0 0 0.0627451 0 0 0 0 0.329412 0 0 0 0.09 0"/>
<feBlend mode="normal" in2="effect1_dropShadow_15778_6552" result="effect2_dropShadow_15778_6552"/>
<feColorMatrix in="SourceAlpha" type="matrix" values="0 0 0 0 0 0 0 0 0 0 0 0 0 0 0 0 0 0 127 0" result="hardAlpha"/>
<feOffset dy="139"/>
<feGaussianBlur stdDeviation="41.5"/>
<feColorMatrix type="matrix" values="0 0 0 0 0.0117647 0 0 0 0 0.0627451 0 0 0 0 0.329412 0 0 0 0.05 0"/>
<feBlend mode="normal" in2="effect2_dropShadow_15778_6552" result="effect3_dropShadow_15778_6552"/>
<feColorMatrix in="SourceAlpha" type="matrix" values="0 0 0 0 0 0 0 0 0 0 0 0 0 0 0 0 0 0 127 0" result="hardAlpha"/>
<feOffset dy="247"/>
<feGaussianBlur stdDeviation="49.5"/>
<feColorMatrix type="matrix" values="0 0 0 0 0.0117647 0 0 0 0 0.0627451 0 0 0 0 0.329412 0 0 0 0.01 0"/>
<feBlend mode="normal" in2="effect3_dropShadow_15778_6552" result="effect4_dropShadow_15778_6552"/>
<feBlend mode="normal" in="SourceGraphic" in2="effect4_dropShadow_15778_6552" result="shape"/>
</filter>
<clipPath id="clip0_15778_6552">
<rect width="821" height="400" rx="8" fill="white"/>
</clipPath>
</defs>
</svg>
